<svg width="280" height="67" viewBox="0 0 280 67" fill="none" xmlns="http://www.w3.org/2000/svg">
<path d="M3.17472 7.26989V12H0.90554V1.09091H3.1108V5.26172H3.20668C3.39134 4.77876 3.68963 4.40057 4.10156 4.12713C4.51349 3.85014 5.03018 3.71165 5.65163 3.71165C6.21982 3.71165 6.7152 3.83594 7.13778 4.08452C7.56392 4.32955 7.89418 4.68288 8.12855 5.14453C8.36648 5.60263 8.48367 6.15128 8.48011 6.79048V12H6.21094V7.19531C6.21449 6.69105 6.08665 6.29865 5.82742 6.01811C5.57173 5.73757 5.21307 5.5973 4.75142 5.5973C4.44247 5.5973 4.16903 5.663 3.93111 5.79439C3.69673 5.92578 3.51207 6.11754 3.37713 6.36967C3.24574 6.61825 3.17827 6.91832 3.17472 7.26989ZM13.9626 12.1598C13.1352 12.1598 12.4197 11.984 11.816 11.6325C11.2158 11.2773 10.7524 10.7837 10.4257 10.1516C10.099 9.51598 9.93564 8.77912 9.93564 7.94105C9.93564 7.09588 10.099 6.35724 10.4257 5.72514C10.7524 5.08949 11.2158 4.59588 11.816 4.24432C12.4197 3.8892 13.1352 3.71165 13.9626 3.71165C14.79 3.71165 15.5038 3.8892 16.104 4.24432C16.7077 4.59588 17.1729 5.08949 17.4996 5.72514C17.8263 6.35724 17.9896 7.09588 17.9896 7.94105C17.9896 8.77912 17.8263 9.51598 17.4996 10.1516C17.1729 10.7837 16.7077 11.2773 16.104 11.6325C15.5038 11.984 14.79 12.1598 13.9626 12.1598ZM13.9733 10.402C14.3497 10.402 14.664 10.2955 14.9161 10.0824C15.1682 9.86577 15.3582 9.57102 15.4861 9.19815C15.6175 8.82528 15.6832 8.40092 15.6832 7.92507C15.6832 7.44922 15.6175 7.02486 15.4861 6.65199C15.3582 6.27912 15.1682 5.98437 14.9161 5.76776C14.664 5.55114 14.3497 5.44283 13.9733 5.44283C13.5933 5.44283 13.2737 5.55114 13.0145 5.76776C12.7588 5.98437 12.5653 6.27912 12.4339 6.65199C12.306 7.02486 12.2421 7.44922 12.2421 7.92507C12.2421 8.40092 12.306 8.82528 12.4339 9.19815C12.5653 9.57102 12.7588 9.86577 13.0145 10.0824C13.2737 10.2955 13.5933 10.402 13.9733 10.402ZM24.7119 8.51634V3.81818H26.9811V12H24.8025V10.5138H24.7172C24.5326 10.9933 24.2254 11.3786 23.7957 11.6697C23.3696 11.9609 22.8493 12.1065 22.235 12.1065C21.6881 12.1065 21.2069 11.9822 20.7915 11.7337C20.376 11.4851 20.051 11.1317 19.8167 10.6737C19.5858 10.2156 19.4687 9.6669 19.4651 9.0277V3.81818H21.7343V8.62287C21.7378 9.10582 21.8675 9.48757 22.1231 9.76811C22.3788 10.0487 22.7215 10.1889 23.1512 10.1889C23.4246 10.1889 23.6803 10.1268 23.9182 10.0025C24.1562 9.87464 24.3479 9.68643 24.4935 9.43785C24.6427 9.18928 24.7155 8.8821 24.7119 8.51634ZM35.6037 6.15128L33.5263 6.27912C33.4908 6.10156 33.4144 5.94176 33.2972 5.79972C33.18 5.65412 33.0256 5.53871 32.8338 5.45348C32.6456 5.3647 32.4201 5.32031 32.1573 5.32031C31.8058 5.32031 31.5092 5.39489 31.2678 5.54403C31.0263 5.68963 30.9055 5.88494 30.9055 6.12997C30.9055 6.32528 30.9837 6.49041 31.1399 6.62536C31.2962 6.7603 31.5643 6.86861 31.9442 6.95028L33.4251 7.24858C34.2205 7.41193 34.8136 7.67472 35.2042 8.03693C35.5948 8.39915 35.7901 8.875 35.7901 9.46449C35.7901 10.0007 35.6321 10.4712 35.3161 10.8761C35.0036 11.2809 34.5739 11.5969 34.027 11.8242C33.4837 12.0479 32.8569 12.1598 32.1467 12.1598C31.0636 12.1598 30.2006 11.9343 29.5579 11.4833C28.9187 11.0288 28.544 10.4109 28.4339 9.62962L30.6658 9.51243C30.7333 9.84268 30.8967 10.0948 31.1559 10.2688C31.4151 10.4393 31.7472 10.5245 32.152 10.5245C32.5497 10.5245 32.8693 10.4482 33.1108 10.2955C33.3558 10.1392 33.4801 9.93857 33.4837 9.69354C33.4801 9.48757 33.3931 9.31889 33.2227 9.1875C33.0522 9.05256 32.7894 8.94957 32.4343 8.87855L31.0174 8.59624C30.2184 8.43643 29.6236 8.15945 29.233 7.76527C28.8459 7.37109 28.6523 6.86861 28.6523 6.25781C28.6523 5.73224 28.7944 5.27947 29.0785 4.8995C29.3661 4.51953 29.7692 4.22656 30.2876 4.0206C30.8097 3.81463 31.4205 3.71165 32.12 3.71165C33.1534 3.71165 33.9666 3.93004 34.5597 4.36683C35.1563 4.80362 35.5043 5.39844 35.6037 6.15128ZM40.9477 12.1598C40.1061 12.1598 39.3817 11.9893 38.7744 11.6484C38.1707 11.304 37.7055 10.8175 37.3788 10.1889C37.0521 9.55682 36.8888 8.8093 36.8888 7.94638C36.8888 7.10476 37.0521 6.36612 37.3788 5.73047C37.7055 5.09482 38.1654 4.59943 38.7584 4.24432C39.355 3.8892 40.0546 3.71165 40.8572 3.71165C41.3969 3.71165 41.8994 3.79865 42.3646 3.97266C42.8334 4.14311 43.2417 4.40057 43.5898 4.74503C43.9413 5.08949 44.2148 5.52273 44.4101 6.04474C44.6054 6.56321 44.703 7.17045 44.703 7.86648V8.4897H37.7943V7.08345H42.567C42.567 6.75675 42.496 6.46733 42.354 6.2152C42.2119 5.96307 42.0148 5.76598 41.7627 5.62393C41.5141 5.47834 41.2247 5.40554 40.8944 5.40554C40.55 5.40554 40.2446 5.48544 39.9782 5.64524C39.7155 5.80149 39.5095 6.01278 39.3604 6.27912C39.2112 6.5419 39.1349 6.83487 39.1313 7.15803V8.49503C39.1313 8.89986 39.2059 9.24964 39.355 9.54439C39.5077 9.83913 39.7226 10.0664 39.9996 10.2262C40.2765 10.386 40.605 10.4659 40.985 10.4659C41.2371 10.4659 41.468 10.4304 41.6775 10.3594C41.887 10.2884 42.0663 10.1818 42.2155 10.0398C42.3646 9.89773 42.4782 9.72372 42.5564 9.51776L44.6551 9.65625C44.5486 10.1605 44.3302 10.6009 43.9999 10.9773C43.6732 11.3501 43.2506 11.6413 42.7322 11.8509C42.2172 12.0568 41.6224 12.1598 40.9477 12.1598ZM53.3523 12.1598C52.5249 12.1598 51.8093 11.984 51.2056 11.6325C50.6055 11.2773 50.142 10.7837 49.8153 10.1516C49.4886 9.51598 49.3253 8.77912 49.3253 7.94105C49.3253 7.09588 49.4886 6.35724 49.8153 5.72514C50.142 5.08949 50.6055 4.59588 51.2056 4.24432C51.8093 3.8892 52.5249 3.71165 53.3523 3.71165C54.1797 3.71165 54.8935 3.8892 55.4936 4.24432C56.0973 4.59588 56.5625 5.08949 56.8892 5.72514C57.2159 6.35724 57.3793 7.09588 57.3793 7.94105C57.3793 8.77912 57.2159 9.51598 56.8892 10.1516C56.5625 10.7837 56.0973 11.2773 55.4936 11.6325C54.8935 11.984 54.1797 12.1598 53.3523 12.1598ZM53.3629 10.402C53.7393 10.402 54.0536 10.2955 54.3058 10.0824C54.5579 9.86577 54.7479 9.57102 54.8757 9.19815C55.0071 8.82528 55.0728 8.40092 55.0728 7.92507C55.0728 7.44922 55.0071 7.02486 54.8757 6.65199C54.7479 6.27912 54.5579 5.98437 54.3058 5.76776C54.0536 5.55114 53.7393 5.44283 53.3629 5.44283C52.983 5.44283 52.6634 5.55114 52.4041 5.76776C52.1484 5.98437 51.9549 6.27912 51.8235 6.65199C51.6957 7.02486 51.6317 7.44922 51.6317 7.92507C51.6317 8.40092 51.6957 8.82528 51.8235 9.19815C51.9549 9.57102 52.1484 9.86577 52.4041 10.0824C52.6634 10.2955 52.983 10.402 53.3629 10.402ZM63.2546 3.81818V5.52273H58.2049V3.81818H63.2546ZM59.3608 12V3.22692C59.3608 2.63388 59.4762 2.14204 59.707 1.75142C59.9414 1.36079 60.261 1.06783 60.6658 0.872513C61.0707 0.677201 61.5305 0.579545 62.0455 0.579545C62.3935 0.579545 62.7113 0.606178 62.9989 0.659446C63.2901 0.712713 63.5067 0.760653 63.6488 0.803267L63.244 2.50781C63.1552 2.4794 63.0451 2.45277 62.9137 2.42791C62.7859 2.40305 62.6545 2.39062 62.5195 2.39062C62.1857 2.39062 61.9531 2.46875 61.8217 2.625C61.6903 2.7777 61.6246 2.99254 61.6246 3.26953V12H59.3608ZM68.1126 15.0682V3.81818H70.3498V5.19247H70.451C70.5504 4.9723 70.6942 4.74858 70.8825 4.52131C71.0742 4.29048 71.3228 4.09872 71.6282 3.94602C71.9371 3.78977 72.3207 3.71165 72.7788 3.71165C73.3754 3.71165 73.9258 3.8679 74.43 4.1804C74.9343 4.48935 75.3374 4.95632 75.6392 5.58132C75.9411 6.20277 76.092 6.98224 76.092 7.91974C76.092 8.83239 75.9446 9.60298 75.6499 10.2315C75.3587 10.8565 74.9609 11.3306 74.4567 11.6538C73.956 11.9734 73.3949 12.1332 72.7734 12.1332C72.3331 12.1332 71.9585 12.0604 71.6495 11.9148C71.3441 11.7692 71.0938 11.5863 70.8984 11.3661C70.7031 11.1424 70.554 10.9169 70.451 10.6896H70.3817V15.0682H68.1126ZM70.3338 7.90909C70.3338 8.3956 70.4013 8.81996 70.5362 9.18217C70.6712 9.54439 70.8665 9.8267 71.1222 10.0291C71.3778 10.228 71.6886 10.3274 72.0543 10.3274C72.4237 10.3274 72.7362 10.2262 72.9918 10.0238C73.2475 9.81783 73.4411 9.53374 73.5724 9.17152C73.7074 8.80575 73.7749 8.38494 73.7749 7.90909C73.7749 7.43679 73.7092 7.02131 73.5778 6.66264C73.4464 6.30398 73.2528 6.02344 72.9972 5.82102C72.7415 5.61861 72.4272 5.5174 72.0543 5.5174C71.685 5.5174 71.3725 5.61506 71.1168 5.81037C70.8647 6.00568 70.6712 6.28267 70.5362 6.64133C70.4013 7 70.3338 7.42259 70.3338 7.90909ZM77.6048 12V3.81818H79.8047V5.24574H79.8899C80.0391 4.73793 80.2894 4.3544 80.641 4.09517C80.9925 3.83239 81.3974 3.70099 81.8555 3.70099C81.9691 3.70099 82.0916 3.7081 82.223 3.7223C82.3544 3.73651 82.4698 3.75604 82.5692 3.78089V5.79439C82.4627 5.76243 82.3153 5.73402 82.1271 5.70916C81.9389 5.6843 81.7667 5.67188 81.6104 5.67188C81.2766 5.67188 80.9783 5.74467 80.7156 5.89027C80.4563 6.03232 80.2504 6.23118 80.0977 6.48686C79.9485 6.74254 79.8739 7.03729 79.8739 7.37109V12H77.6048ZM83.7425 12V3.81818H86.0116V12H83.7425ZM84.8824 2.76349C84.545 2.76349 84.2556 2.65163 84.0141 2.42791C83.7762 2.20064 83.6572 1.92898 83.6572 1.61293C83.6572 1.30043 83.7762 1.03232 84.0141 0.808594C84.2556 0.581321 84.545 0.467684 84.8824 0.467684C85.2197 0.467684 85.5074 0.581321 85.7453 0.808594C85.9868 1.03232 86.1075 1.30043 86.1075 1.61293C86.1075 1.92898 85.9868 2.20064 85.7453 2.42791C85.5074 2.65163 85.2197 2.76349 84.8824 2.76349ZM95.4572 3.81818L92.5968 12H90.04L87.1795 3.81818H89.5765L91.2757 9.67223H91.361L93.0549 3.81818H95.4572ZM96.6184 12V3.81818H98.8876V12H96.6184ZM97.7583 2.76349C97.421 2.76349 97.1316 2.65163 96.8901 2.42791C96.6522 2.20064 96.5332 1.92898 96.5332 1.61293C96.5332 1.30043 96.6522 1.03232 96.8901 0.808594C97.1316 0.581321 97.421 0.467684 97.7583 0.467684C98.0957 0.467684 98.3833 0.581321 98.6213 0.808594C98.8627 1.03232 98.9835 1.30043 98.9835 1.61293C98.9835 1.92898 98.8627 2.20064 98.6213 2.42791C98.3833 2.65163 98.0957 2.76349 97.7583 2.76349ZM102.975 1.09091V12H100.705V1.09091H102.975ZM108.521 12.1598C107.679 12.1598 106.955 11.9893 106.348 11.6484C105.744 11.304 105.279 10.8175 104.952 10.1889C104.625 9.55682 104.462 8.8093 104.462 7.94638C104.462 7.10476 104.625 6.36612 104.952 5.73047C105.279 5.09482 105.739 4.59943 106.332 4.24432C106.928 3.8892 107.628 3.71165 108.43 3.71165C108.97 3.71165 109.473 3.79865 109.938 3.97266C110.407 4.14311 110.815 4.40057 111.163 4.74503C111.515 5.08949 111.788 5.52273 111.983 6.04474C112.179 6.56321 112.276 7.17045 112.276 7.86648V8.4897H105.368V7.08345H110.14C110.14 6.75675 110.069 6.46733 109.927 6.2152C109.785 5.96307 109.588 5.76598 109.336 5.62393C109.087 5.47834 108.798 5.40554 108.468 5.40554C108.123 5.40554 107.818 5.48544 107.551 5.64524C107.289 5.80149 107.083 6.01278 106.934 6.27912C106.784 6.5419 106.708 6.83487 106.705 7.15803V8.49503C106.705 8.89986 106.779 9.24964 106.928 9.54439C107.081 9.83913 107.296 10.0664 107.573 10.2262C107.85 10.386 108.178 10.4659 108.558 10.4659C108.81 10.4659 109.041 10.4304 109.251 10.3594C109.46 10.2884 109.64 10.1818 109.789 10.0398C109.938 9.89773 110.051 9.72372 110.13 9.51776L112.228 9.65625C112.122 10.1605 111.903 10.6009 111.573 10.9773C111.246 11.3501 110.824 11.6413 110.305 11.8509C109.79 12.0568 109.196 12.1598 108.521 12.1598ZM117.443 15.2386C116.708 15.2386 116.078 15.1374 115.552 14.935C115.03 14.7362 114.615 14.4645 114.306 14.12C113.997 13.7756 113.796 13.3885 113.704 12.9588L115.803 12.6765C115.866 12.8398 115.968 12.9925 116.106 13.1346C116.245 13.2766 116.428 13.3903 116.655 13.4755C116.886 13.5643 117.166 13.6087 117.496 13.6087C117.99 13.6087 118.397 13.4879 118.716 13.2464C119.039 13.0085 119.201 12.609 119.201 12.0479V10.5511H119.105C119.006 10.7784 118.857 10.9933 118.658 11.1957C118.459 11.3981 118.203 11.5632 117.891 11.6911C117.578 11.8189 117.205 11.8828 116.772 11.8828C116.158 11.8828 115.598 11.7408 115.094 11.4567C114.593 11.169 114.194 10.7305 113.896 10.141C113.601 9.54794 113.453 8.79865 113.453 7.89311C113.453 6.96626 113.604 6.19212 113.906 5.57067C114.208 4.94922 114.609 4.48402 115.11 4.17507C115.614 3.86612 116.167 3.71165 116.767 3.71165C117.225 3.71165 117.608 3.78977 117.917 3.94602C118.226 4.09872 118.475 4.29048 118.663 4.52131C118.855 4.74858 119.002 4.9723 119.105 5.19247H119.19V3.81818H121.444V12.0799C121.444 12.7759 121.273 13.3583 120.932 13.8271C120.591 14.2958 120.119 14.6474 119.515 14.8817C118.915 15.1197 118.224 15.2386 117.443 15.2386ZM117.491 10.1783C117.857 10.1783 118.166 10.0877 118.418 9.90661C118.674 9.72195 118.869 9.45916 119.004 9.11825C119.142 8.77379 119.212 8.36186 119.212 7.88246C119.212 7.40305 119.144 6.98757 119.009 6.63601C118.874 6.28089 118.679 6.00568 118.423 5.81037C118.168 5.61506 117.857 5.5174 117.491 5.5174C117.118 5.5174 116.804 5.61861 116.548 5.82102C116.293 6.01989 116.099 6.29687 115.968 6.65199C115.836 7.0071 115.771 7.41726 115.771 7.88246C115.771 8.35476 115.836 8.76314 115.968 9.1076C116.103 9.44851 116.296 9.71307 116.548 9.90128C116.804 10.0859 117.118 10.1783 117.491 10.1783ZM126.978 12.1598C126.136 12.1598 125.412 11.9893 124.805 11.6484C124.201 11.304 123.736 10.8175 123.409 10.1889C123.082 9.55682 122.919 8.8093 122.919 7.94638C122.919 7.10476 123.082 6.36612 123.409 5.73047C123.736 5.09482 124.196 4.59943 124.789 4.24432C125.385 3.8892 126.085 3.71165 126.887 3.71165C127.427 3.71165 127.93 3.79865 128.395 3.97266C128.864 4.14311 129.272 4.40057 129.62 4.74503C129.972 5.08949 130.245 5.52273 130.44 6.04474C130.636 6.56321 130.733 7.17045 130.733 7.86648V8.4897H123.825V7.08345H128.597C128.597 6.75675 128.526 6.46733 128.384 6.2152C128.242 5.96307 128.045 5.76598 127.793 5.62393C127.544 5.47834 127.255 5.40554 126.925 5.40554C126.58 5.40554 126.275 5.48544 126.009 5.64524C125.746 5.80149 125.54 6.01278 125.391 6.27912C125.241 6.5419 125.165 6.83487 125.162 7.15803V8.49503C125.162 8.89986 125.236 9.24964 125.385 9.54439C125.538 9.83913 125.753 10.0664 126.03 10.2262C126.307 10.386 126.635 10.4659 127.015 10.4659C127.267 10.4659 127.498 10.4304 127.708 10.3594C127.917 10.2884 128.097 10.1818 128.246 10.0398C128.395 9.89773 128.509 9.72372 128.587 9.51776L130.685 9.65625C130.579 10.1605 130.36 10.6009 130.03 10.9773C129.703 11.3501 129.281 11.6413 128.762 11.8509C128.248 12.0568 127.653 12.1598 126.978 12.1598ZM135.686 12V3.81818H137.955V12H135.686ZM136.826 2.76349C136.488 2.76349 136.199 2.65163 135.957 2.42791C135.72 2.20064 135.601 1.92898 135.601 1.61293C135.601 1.30043 135.72 1.03232 135.957 0.808594C136.199 0.581321 136.488 0.467684 136.826 0.467684C137.163 0.467684 137.451 0.581321 137.689 0.808594C137.93 1.03232 138.051 1.30043 138.051 1.61293C138.051 1.92898 137.93 2.20064 137.689 2.42791C137.451 2.65163 137.163 2.76349 136.826 2.76349ZM146.58 6.15128L144.503 6.27912C144.467 6.10156 144.391 5.94176 144.274 5.79972C144.157 5.65412 144.002 5.53871 143.81 5.45348C143.622 5.3647 143.397 5.32031 143.134 5.32031C142.782 5.32031 142.486 5.39489 142.244 5.54403C142.003 5.68963 141.882 5.88494 141.882 6.12997C141.882 6.32528 141.96 6.49041 142.116 6.62536C142.273 6.7603 142.541 6.86861 142.921 6.95028L144.402 7.24858C145.197 7.41193 145.79 7.67472 146.181 8.03693C146.571 8.39915 146.767 8.875 146.767 9.46449C146.767 10.0007 146.609 10.4712 146.293 10.8761C145.98 11.2809 145.55 11.5969 145.004 11.8242C144.46 12.0479 143.833 12.1598 143.123 12.1598C142.04 12.1598 141.177 11.9343 140.534 11.4833C139.895 11.0288 139.521 10.4109 139.411 9.62962L141.642 9.51243C141.71 9.84268 141.873 10.0948 142.132 10.2688C142.392 10.4393 142.724 10.5245 143.129 10.5245C143.526 10.5245 143.846 10.4482 144.087 10.2955C144.332 10.1392 144.457 9.93857 144.46 9.69354C144.457 9.48757 144.37 9.31889 144.199 9.1875C144.029 9.05256 143.766 8.94957 143.411 8.87855L141.994 8.59624C141.195 8.43643 140.6 8.15945 140.21 7.76527C139.822 7.37109 139.629 6.86861 139.629 6.25781C139.629 5.73224 139.771 5.27947 140.055 4.8995C140.343 4.51953 140.746 4.22656 141.264 4.0206C141.786 3.81463 142.397 3.71165 143.097 3.71165C144.13 3.71165 144.943 3.93004 145.536 4.36683C146.133 4.80362 146.481 5.39844 146.58 6.15128ZM154 12.1545C153.478 12.1545 153.013 12.0639 152.605 11.8828C152.196 11.6982 151.873 11.4265 151.635 11.0678C151.401 10.7056 151.284 10.2546 151.284 9.71484C151.284 9.2603 151.367 8.87855 151.534 8.5696C151.701 8.26065 151.928 8.01207 152.216 7.82386C152.504 7.63565 152.83 7.49361 153.196 7.39773C153.565 7.30185 153.952 7.23438 154.357 7.19531C154.833 7.1456 155.217 7.09943 155.508 7.05682C155.799 7.01065 156.01 6.94318 156.142 6.8544C156.273 6.76562 156.339 6.63423 156.339 6.46023V6.42827C156.339 6.09091 156.232 5.8299 156.019 5.64524C155.81 5.46058 155.511 5.36825 155.124 5.36825C154.716 5.36825 154.391 5.45881 154.15 5.63991C153.908 5.81747 153.748 6.04119 153.67 6.31108L151.571 6.14062C151.678 5.64347 151.887 5.21378 152.2 4.85156C152.512 4.4858 152.915 4.20526 153.409 4.00994C153.906 3.81108 154.482 3.71165 155.135 3.71165C155.589 3.71165 156.025 3.76491 156.44 3.87145C156.859 3.97798 157.23 4.14311 157.553 4.36683C157.88 4.59055 158.137 4.8782 158.326 5.22976C158.514 5.57777 158.608 5.99503 158.608 6.48153V12H156.456V10.8654H156.392C156.261 11.1211 156.085 11.3466 155.865 11.5419C155.645 11.7337 155.38 11.8846 155.071 11.9947C154.762 12.1012 154.405 12.1545 154 12.1545ZM154.65 10.5884C154.984 10.5884 155.279 10.5227 155.534 10.3913C155.79 10.2564 155.991 10.0753 156.136 9.84801C156.282 9.62074 156.355 9.36328 156.355 9.07564V8.20739C156.284 8.25355 156.186 8.29616 156.062 8.33523C155.941 8.37074 155.804 8.40447 155.652 8.43643C155.499 8.46484 155.346 8.49148 155.194 8.51634C155.041 8.53764 154.902 8.55717 154.778 8.57493C154.512 8.61399 154.279 8.67614 154.08 8.76136C153.881 8.84659 153.727 8.962 153.617 9.1076C153.507 9.24964 153.452 9.4272 153.452 9.64027C153.452 9.94922 153.564 10.1854 153.787 10.3487C154.015 10.5085 154.302 10.5884 154.65 10.5884ZM162.638 7.26989V12H160.368V3.81818H162.531V5.26172H162.627C162.808 4.78587 163.112 4.40945 163.538 4.13246C163.964 3.85192 164.481 3.71165 165.088 3.71165C165.656 3.71165 166.151 3.83594 166.574 4.08452C166.997 4.3331 167.325 4.68821 167.559 5.14986C167.794 5.60795 167.911 6.15483 167.911 6.79048V12H165.642V7.19531C165.645 6.6946 165.518 6.30398 165.258 6.02344C164.999 5.73935 164.642 5.5973 164.188 5.5973C163.882 5.5973 163.612 5.663 163.378 5.79439C163.147 5.92578 162.966 6.11754 162.835 6.36967C162.707 6.61825 162.641 6.91832 162.638 7.26989ZM175.504 12.1545C174.982 12.1545 174.517 12.0639 174.109 11.8828C173.7 11.6982 173.377 11.4265 173.139 11.0678C172.905 10.7056 172.788 10.2546 172.788 9.71484C172.788 9.2603 172.871 8.87855 173.038 8.5696C173.205 8.26065 173.432 8.01207 173.72 7.82386C174.007 7.63565 174.334 7.49361 174.7 7.39773C175.069 7.30185 175.456 7.23438 175.861 7.19531C176.337 7.1456 176.721 7.09943 177.012 7.05682C177.303 7.01065 177.514 6.94318 177.646 6.8544C177.777 6.76562 177.843 6.63423 177.843 6.46023V6.42827C177.843 6.09091 177.736 5.8299 177.523 5.64524C177.314 5.46058 177.015 5.36825 176.628 5.36825C176.22 5.36825 175.895 5.45881 175.653 5.63991C175.412 5.81747 175.252 6.04119 175.174 6.31108L173.075 6.14062C173.182 5.64347 173.391 5.21378 173.704 4.85156C174.016 4.4858 174.419 4.20526 174.913 4.00994C175.41 3.81108 175.985 3.71165 176.639 3.71165C177.093 3.71165 177.528 3.76491 177.944 3.87145C178.363 3.97798 178.734 4.14311 179.057 4.36683C179.384 4.59055 179.641 4.8782 179.83 5.22976C180.018 5.57777 180.112 5.99503 180.112 6.48153V12H177.96V10.8654H177.896C177.765 11.1211 177.589 11.3466 177.369 11.5419C177.148 11.7337 176.884 11.8846 176.575 11.9947C176.266 12.1012 175.909 12.1545 175.504 12.1545ZM176.154 10.5884C176.488 10.5884 176.783 10.5227 177.038 10.3913C177.294 10.2564 177.495 10.0753 177.64 9.84801C177.786 9.62074 177.859 9.36328 177.859 9.07564V8.20739C177.788 8.25355 177.69 8.29616 177.566 8.33523C177.445 8.37074 177.308 8.40447 177.156 8.43643C177.003 8.46484 176.85 8.49148 176.697 8.51634C176.545 8.53764 176.406 8.55717 176.282 8.57493C176.016 8.61399 175.783 8.67614 175.584 8.76136C175.385 8.84659 175.231 8.962 175.121 9.1076C175.011 9.24964 174.956 9.4272 174.956 9.64027C174.956 9.94922 175.067 10.1854 175.291 10.3487C175.518 10.5085 175.806 10.5884 176.154 10.5884ZM184.142 7.26989V12H181.872V3.81818H184.035V5.26172H184.131C184.312 4.78587 184.616 4.40945 185.042 4.13246C185.468 3.85192 185.985 3.71165 186.592 3.71165C187.16 3.71165 187.655 3.83594 188.078 4.08452C188.501 4.3331 188.829 4.68821 189.063 5.14986C189.298 5.60795 189.415 6.15483 189.415 6.79048V12H187.146V7.19531C187.149 6.6946 187.021 6.30398 186.762 6.02344C186.503 5.73935 186.146 5.5973 185.692 5.5973C185.386 5.5973 185.116 5.663 184.882 5.79439C184.651 5.92578 184.47 6.11754 184.339 6.36967C184.211 6.61825 184.145 6.91832 184.142 7.26989ZM195.555 3.81818V5.52273H190.628V3.81818H195.555ZM191.747 1.85795H194.016V9.4858C194.016 9.69531 194.048 9.85866 194.112 9.97585C194.176 10.0895 194.264 10.1694 194.378 10.2156C194.495 10.2617 194.63 10.2848 194.783 10.2848C194.889 10.2848 194.996 10.2759 195.103 10.2582C195.209 10.2369 195.291 10.2209 195.348 10.2102L195.704 11.8988C195.591 11.9343 195.431 11.9751 195.225 12.0213C195.019 12.071 194.769 12.1012 194.474 12.1119C193.927 12.1332 193.448 12.0604 193.036 11.8935C192.627 11.7266 192.31 11.4673 192.082 11.1158C191.855 10.7642 191.743 10.3203 191.747 9.78409V1.85795ZM197.033 12V3.81818H199.303V12H197.033ZM198.173 2.76349C197.836 2.76349 197.547 2.65163 197.305 2.42791C197.067 2.20064 196.948 1.92898 196.948 1.61293C196.948 1.30043 197.067 1.03232 197.305 0.808594C197.547 0.581321 197.836 0.467684 198.173 0.467684C198.511 0.467684 198.798 0.581321 199.036 0.808594C199.278 1.03232 199.399 1.30043 199.399 1.61293C199.399 1.92898 199.278 2.20064 199.036 2.42791C198.798 2.65163 198.511 2.76349 198.173 2.76349ZM206.218 6.62003V8.42045H201.243V6.62003H206.218ZM208.152 15.0682V3.81818H210.389V5.19247H210.49C210.589 4.9723 210.733 4.74858 210.922 4.52131C211.113 4.29048 211.362 4.09872 211.667 3.94602C211.976 3.78977 212.36 3.71165 212.818 3.71165C213.414 3.71165 213.965 3.8679 214.469 4.1804C214.973 4.48935 215.376 4.95632 215.678 5.58132C215.98 6.20277 216.131 6.98224 216.131 7.91974C216.131 8.83239 215.984 9.60298 215.689 10.2315C215.398 10.8565 215 11.3306 214.496 11.6538C213.995 11.9734 213.434 12.1332 212.812 12.1332C212.372 12.1332 211.998 12.0604 211.689 11.9148C211.383 11.7692 211.133 11.5863 210.938 11.3661C210.742 11.1424 210.593 10.9169 210.49 10.6896H210.421V15.0682H208.152ZM210.373 7.90909C210.373 8.3956 210.44 8.81996 210.575 9.18217C210.71 9.54439 210.906 9.8267 211.161 10.0291C211.417 10.228 211.728 10.3274 212.093 10.3274C212.463 10.3274 212.775 10.2262 213.031 10.0238C213.287 9.81783 213.48 9.53374 213.612 9.17152C213.746 8.80575 213.814 8.38494 213.814 7.90909C213.814 7.43679 213.748 7.02131 213.617 6.66264C213.485 6.30398 213.292 6.02344 213.036 5.82102C212.781 5.61861 212.466 5.5174 212.093 5.5174C211.724 5.5174 211.412 5.61506 211.156 5.81037C210.904 6.00568 210.71 6.28267 210.575 6.64133C210.44 7 210.373 7.42259 210.373 7.90909ZM217.644 12V3.81818H219.844V5.24574H219.929C220.078 4.73793 220.328 4.3544 220.68 4.09517C221.032 3.83239 221.436 3.70099 221.895 3.70099C222.008 3.70099 222.131 3.7081 222.262 3.7223C222.393 3.73651 222.509 3.75604 222.608 3.78089V5.79439C222.502 5.76243 222.354 5.73402 222.166 5.70916C221.978 5.6843 221.806 5.67188 221.65 5.67188C221.316 5.67188 221.017 5.74467 220.755 5.89027C220.495 6.03232 220.289 6.23118 220.137 6.48686C219.988 6.74254 219.913 7.03729 219.913 7.37109V12H217.644ZM223.782 12V3.81818H226.051V12H223.782ZM224.921 2.76349C224.584 2.76349 224.295 2.65163 224.053 2.42791C223.815 2.20064 223.696 1.92898 223.696 1.61293C223.696 1.30043 223.815 1.03232 224.053 0.808594C224.295 0.581321 224.584 0.467684 224.921 0.467684C225.259 0.467684 225.546 0.581321 225.784 0.808594C226.026 1.03232 226.147 1.30043 226.147 1.61293C226.147 1.92898 226.026 2.20064 225.784 2.42791C225.546 2.65163 225.259 2.76349 224.921 2.76349ZM235.496 3.81818L232.636 12H230.079L227.219 3.81818H229.616L231.315 9.67223H231.4L233.094 3.81818H235.496ZM236.657 12V3.81818H238.927V12H236.657ZM237.797 2.76349C237.46 2.76349 237.171 2.65163 236.929 2.42791C236.691 2.20064 236.572 1.92898 236.572 1.61293C236.572 1.30043 236.691 1.03232 236.929 0.808594C237.171 0.581321 237.46 0.467684 237.797 0.467684C238.135 0.467684 238.422 0.581321 238.66 0.808594C238.902 1.03232 239.023 1.30043 239.023 1.61293C239.023 1.92898 238.902 2.20064 238.66 2.42791C238.422 2.65163 238.135 2.76349 237.797 2.76349ZM243.014 1.09091V12H240.744V1.09091H243.014ZM248.56 12.1598C247.718 12.1598 246.994 11.9893 246.387 11.6484C245.783 11.304 245.318 10.8175 244.991 10.1889C244.664 9.55682 244.501 8.8093 244.501 7.94638C244.501 7.10476 244.664 6.36612 244.991 5.73047C245.318 5.09482 245.778 4.59943 246.371 4.24432C246.967 3.8892 247.667 3.71165 248.469 3.71165C249.009 3.71165 249.512 3.79865 249.977 3.97266C250.446 4.14311 250.854 4.40057 251.202 4.74503C251.554 5.08949 251.827 5.52273 252.022 6.04474C252.218 6.56321 252.315 7.17045 252.315 7.86648V8.4897H245.407V7.08345H250.179C250.179 6.75675 250.108 6.46733 249.966 6.2152C249.824 5.96307 249.627 5.76598 249.375 5.62393C249.126 5.47834 248.837 5.40554 248.507 5.40554C248.162 5.40554 247.857 5.48544 247.591 5.64524C247.328 5.80149 247.122 6.01278 246.973 6.27912C246.824 6.5419 246.747 6.83487 246.744 7.15803V8.49503C246.744 8.89986 246.818 9.24964 246.967 9.54439C247.12 9.83913 247.335 10.0664 247.612 10.2262C247.889 10.386 248.217 10.4659 248.597 10.4659C248.849 10.4659 249.08 10.4304 249.29 10.3594C249.499 10.2884 249.679 10.1818 249.828 10.0398C249.977 9.89773 250.091 9.72372 250.169 9.51776L252.267 9.65625C252.161 10.1605 251.942 10.6009 251.612 10.9773C251.286 11.3501 250.863 11.6413 250.344 11.8509C249.83 12.0568 249.235 12.1598 248.56 12.1598ZM257.482 15.2386C256.747 15.2386 256.117 15.1374 255.591 14.935C255.069 14.7362 254.654 14.4645 254.345 14.12C254.036 13.7756 253.835 13.3885 253.743 12.9588L255.842 12.6765C255.906 12.8398 256.007 12.9925 256.145 13.1346C256.284 13.2766 256.467 13.3903 256.694 13.4755C256.925 13.5643 257.205 13.6087 257.536 13.6087C258.029 13.6087 258.436 13.4879 258.755 13.2464C259.078 13.0085 259.24 12.609 259.24 12.0479V10.5511H259.144C259.045 10.7784 258.896 10.9933 258.697 11.1957C258.498 11.3981 258.242 11.5632 257.93 11.6911C257.617 11.8189 257.244 11.8828 256.811 11.8828C256.197 11.8828 255.637 11.7408 255.133 11.4567C254.632 11.169 254.233 10.7305 253.935 10.141C253.64 9.54794 253.493 8.79865 253.493 7.89311C253.493 6.96626 253.643 6.19212 253.945 5.57067C254.247 4.94922 254.648 4.48402 255.149 4.17507C255.653 3.86612 256.206 3.71165 256.806 3.71165C257.264 3.71165 257.647 3.78977 257.956 3.94602C258.265 4.09872 258.514 4.29048 258.702 4.52131C258.894 4.74858 259.041 4.9723 259.144 5.19247H259.229V3.81818H261.483V12.0799C261.483 12.7759 261.312 13.3583 260.971 13.8271C260.63 14.2958 260.158 14.6474 259.554 14.8817C258.954 15.1197 258.263 15.2386 257.482 15.2386ZM257.53 10.1783C257.896 10.1783 258.205 10.0877 258.457 9.90661C258.713 9.72195 258.908 9.45916 259.043 9.11825C259.181 8.77379 259.251 8.36186 259.251 7.88246C259.251 7.40305 259.183 6.98757 259.048 6.63601C258.913 6.28089 258.718 6.00568 258.462 5.81037C258.207 5.61506 257.896 5.5174 257.53 5.5174C257.157 5.5174 256.843 5.61861 256.587 5.82102C256.332 6.01989 256.138 6.29687 256.007 6.65199C255.875 7.0071 255.81 7.41726 255.81 7.88246C255.81 8.35476 255.875 8.76314 256.007 9.1076C256.142 9.44851 256.335 9.71307 256.587 9.90128C256.843 10.0859 257.157 10.1783 257.53 10.1783ZM267.017 12.1598C266.175 12.1598 265.451 11.9893 264.844 11.6484C264.24 11.304 263.775 10.8175 263.448 10.1889C263.121 9.55682 262.958 8.8093 262.958 7.94638C262.958 7.10476 263.121 6.36612 263.448 5.73047C263.775 5.09482 264.235 4.59943 264.828 4.24432C265.424 3.8892 266.124 3.71165 266.926 3.71165C267.466 3.71165 267.969 3.79865 268.434 3.97266C268.903 4.14311 269.311 4.40057 269.659 4.74503C270.011 5.08949 270.284 5.52273 270.479 6.04474C270.675 6.56321 270.772 7.17045 270.772 7.86648V8.4897H263.864V7.08345H268.636C268.636 6.75675 268.565 6.46733 268.423 6.2152C268.281 5.96307 268.084 5.76598 267.832 5.62393C267.583 5.47834 267.294 5.40554 266.964 5.40554C266.619 5.40554 266.314 5.48544 266.048 5.64524C265.785 5.80149 265.579 6.01278 265.43 6.27912C265.281 6.5419 265.204 6.83487 265.201 7.15803V8.49503C265.201 8.89986 265.275 9.24964 265.424 9.54439C265.577 9.83913 265.792 10.0664 266.069 10.2262C266.346 10.386 266.674 10.4659 267.054 10.4659C267.306 10.4659 267.537 10.4304 267.747 10.3594C267.956 10.2884 268.136 10.1818 268.285 10.0398C268.434 9.89773 268.548 9.72372 268.626 9.51776L270.724 9.65625C270.618 10.1605 270.4 10.6009 270.069 10.9773C269.743 11.3501 269.32 11.6413 268.801 11.8509C268.287 12.0568 267.692 12.1598 267.017 12.1598ZM275.268 12.1332C274.647 12.1332 274.084 11.9734 273.58 11.6538C273.079 11.3306 272.681 10.8565 272.386 10.2315C272.095 9.60298 271.95 8.83239 271.95 7.91974C271.95 6.98224 272.1 6.20277 272.402 5.58132C272.704 4.95632 273.105 4.48935 273.606 4.1804C274.11 3.8679 274.663 3.71165 275.263 3.71165C275.721 3.71165 276.103 3.78977 276.408 3.94602C276.717 4.09872 276.966 4.29048 277.154 4.52131C277.346 4.74858 277.491 4.9723 277.591 5.19247H277.66V1.09091H279.924V12H277.686V10.6896H277.591C277.484 10.9169 277.333 11.1424 277.138 11.3661C276.946 11.5863 276.696 11.7692 276.387 11.9148C276.081 12.0604 275.708 12.1332 275.268 12.1332ZM275.987 10.3274C276.353 10.3274 276.662 10.228 276.914 10.0291C277.17 9.8267 277.365 9.54439 277.5 9.18217C277.638 8.81996 277.708 8.3956 277.708 7.90909C277.708 7.42259 277.64 7 277.505 6.64133C277.37 6.28267 277.175 6.00568 276.919 5.81037C276.664 5.61506 276.353 5.5174 275.987 5.5174C275.614 5.5174 275.3 5.61861 275.044 5.82102C274.789 6.02344 274.595 6.30398 274.464 6.66264C274.332 7.02131 274.267 7.43679 274.267 7.90909C274.267 8.38494 274.332 8.80575 274.464 9.17152C274.599 9.53374 274.792 9.81783 275.044 10.0238C275.3 10.2262 275.614 10.3274 275.987 10.3274ZM4.60227 30.1598C3.7642 30.1598 3.04332 29.9822 2.43963 29.6271C1.83949 29.2685 1.37784 28.7713 1.05469 28.1357C0.735085 27.5 0.575284 26.7685 0.575284 25.9411C0.575284 25.103 0.736861 24.3679 1.06001 23.7358C1.38672 23.1001 1.85014 22.6048 2.45028 22.2496C3.05043 21.891 3.7642 21.7116 4.59162 21.7116C5.3054 21.7116 5.9304 21.8413 6.46662 22.1005C7.00284 22.3597 7.4272 22.7237 7.7397 23.1925C8.0522 23.6612 8.22443 24.2116 8.25639 24.8438H6.11506C6.05469 24.4354 5.89489 24.1069 5.63565 23.8583C5.37997 23.6062 5.04439 23.4801 4.62891 23.4801C4.27734 23.4801 3.97017 23.576 3.70739 23.7678C3.44815 23.956 3.24574 24.2312 3.10014 24.5934C2.95455 24.9556 2.88175 25.3942 2.88175 25.9091C2.88175 26.4311 2.95277 26.875 3.09482 27.2408C3.24041 27.6065 3.4446 27.8853 3.70739 28.0771C3.97017 28.2688 4.27734 28.3647 4.62891 28.3647C4.88814 28.3647 5.12074 28.3114 5.3267 28.2049C5.53622 28.0984 5.70845 27.9439 5.84339 27.7415C5.98189 27.5355 6.07244 27.2887 6.11506 27.0011H8.25639C8.22088 27.6261 8.05043 28.1765 7.74503 28.6523C7.44318 29.1246 7.02592 29.494 6.49325 29.7603C5.96058 30.0266 5.33026 30.1598 4.60227 30.1598ZM9.70925 30V21.8182H11.9092V23.2457H11.9944C12.1436 22.7379 12.3939 22.3544 12.7455 22.0952C13.097 21.8324 13.5019 21.701 13.96 21.701C14.0736 21.701 14.1961 21.7081 14.3275 21.7223C14.4589 21.7365 14.5743 21.756 14.6737 21.7809V23.7944C14.5672 23.7624 14.4198 23.734 14.2316 23.7092C14.0434 23.6843 13.8712 23.6719 13.7149 23.6719C13.3811 23.6719 13.0828 23.7447 12.82 23.8903C12.5608 24.0323 12.3548 24.2312 12.2021 24.4869C12.053 24.7425 11.9784 25.0373 11.9784 25.3711V30H9.70925ZM19.1948 30.1598C18.3532 30.1598 17.6287 29.9893 17.0215 29.6484C16.4178 29.304 15.9526 28.8175 15.6259 28.1889C15.2992 27.5568 15.1358 26.8093 15.1358 25.9464C15.1358 25.1048 15.2992 24.3661 15.6259 23.7305C15.9526 23.0948 16.4125 22.5994 17.0055 22.2443C17.6021 21.8892 18.3017 21.7116 19.1042 21.7116C19.644 21.7116 20.1465 21.7987 20.6117 21.9727C21.0804 22.1431 21.4888 22.4006 21.8368 22.745C22.1884 23.0895 22.4618 23.5227 22.6571 24.0447C22.8525 24.5632 22.9501 25.1705 22.9501 25.8665V26.4897H16.0414V25.0835H20.8141C20.8141 24.7567 20.7431 24.4673 20.601 24.2152C20.459 23.9631 20.2619 23.766 20.0098 23.6239C19.7612 23.4783 19.4718 23.4055 19.1415 23.4055C18.7971 23.4055 18.4917 23.4854 18.2253 23.6452C17.9625 23.8015 17.7566 24.0128 17.6074 24.2791C17.4583 24.5419 17.3819 24.8349 17.3784 25.158V26.495C17.3784 26.8999 17.4529 27.2496 17.6021 27.5444C17.7548 27.8391 17.9696 28.0664 18.2466 28.2262C18.5236 28.386 18.8521 28.4659 19.2321 28.4659C19.4842 28.4659 19.715 28.4304 19.9245 28.3594C20.1341 28.2884 20.3134 28.1818 20.4625 28.0398C20.6117 27.8977 20.7253 27.7237 20.8034 27.5178L22.9022 27.6562C22.7956 28.1605 22.5772 28.6009 22.247 28.9773C21.9203 29.3501 21.4977 29.6413 20.9792 29.8509C20.4643 30.0568 19.8695 30.1598 19.1948 30.1598ZM26.764 30.1545C26.242 30.1545 25.7768 30.0639 25.3684 29.8828C24.96 29.6982 24.6369 29.4265 24.399 29.0678C24.1646 28.7056 24.0474 28.2546 24.0474 27.7148C24.0474 27.2603 24.1309 26.8786 24.2978 26.5696C24.4647 26.2607 24.6919 26.0121 24.9796 25.8239C25.2672 25.6357 25.5939 25.4936 25.9597 25.3977C26.329 25.3018 26.7161 25.2344 27.1209 25.1953C27.5968 25.1456 27.9803 25.0994 28.2715 25.0568C28.5627 25.0107 28.774 24.9432 28.9054 24.8544C29.0368 24.7656 29.1025 24.6342 29.1025 24.4602V24.4283C29.1025 24.0909 28.9959 23.8299 28.7828 23.6452C28.5733 23.4606 28.275 23.3683 27.888 23.3683C27.4796 23.3683 27.1547 23.4588 26.9132 23.6399C26.6717 23.8175 26.5119 24.0412 26.4338 24.3111L24.335 24.1406C24.4416 23.6435 24.6511 23.2138 24.9636 22.8516C25.2761 22.4858 25.6792 22.2053 26.1728 22.0099C26.6699 21.8111 27.2452 21.7116 27.8986 21.7116C28.3532 21.7116 28.7882 21.7649 29.2037 21.8714C29.6227 21.978 29.9938 22.1431 30.3169 22.3668C30.6436 22.5906 30.9011 22.8782 31.0893 23.2298C31.2775 23.5778 31.3716 23.995 31.3716 24.4815V30H29.2196V28.8654H29.1557C29.0243 29.1211 28.8485 29.3466 28.6284 29.5419C28.4082 29.7337 28.1436 29.8846 27.8347 29.9947C27.5257 30.1012 27.1689 30.1545 26.764 30.1545ZM27.4139 28.5884C27.7477 28.5884 28.0424 28.5227 28.2981 28.3913C28.5538 28.2564 28.7544 28.0753 28.9 27.848C29.0456 27.6207 29.1184 27.3633 29.1184 27.0756V26.2074C29.0474 26.2536 28.9498 26.2962 28.8255 26.3352C28.7047 26.3707 28.568 26.4045 28.4153 26.4364C28.2626 26.4648 28.1099 26.4915 27.9572 26.5163C27.8045 26.5376 27.666 26.5572 27.5417 26.5749C27.2754 26.614 27.0428 26.6761 26.8439 26.7614C26.6451 26.8466 26.4906 26.962 26.3805 27.1076C26.2704 27.2496 26.2154 27.4272 26.2154 27.6403C26.2154 27.9492 26.3272 28.1854 26.551 28.3487C26.7782 28.5085 27.0659 28.5884 27.4139 28.5884ZM37.484 21.8182V23.5227H32.5568V21.8182H37.484ZM33.6754 19.858H35.9446V27.4858C35.9446 27.6953 35.9766 27.8587 36.0405 27.9759C36.1044 28.0895 36.1932 28.1694 36.3068 28.2156C36.424 28.2617 36.5589 28.2848 36.7116 28.2848C36.8182 28.2848 36.9247 28.2759 37.0312 28.2582C37.1378 28.2369 37.2195 28.2209 37.2763 28.2102L37.6332 29.8988C37.5195 29.9343 37.3597 29.9751 37.1538 30.0213C36.9478 30.071 36.6974 30.1012 36.4027 30.1119C35.8558 30.1332 35.3764 30.0604 34.9645 29.8935C34.5561 29.7266 34.2383 29.4673 34.011 29.1158C33.7837 28.7642 33.6719 28.3203 33.6754 27.7841V19.858ZM38.9622 30V21.8182H41.2314V30H38.9622ZM40.1021 20.7635C39.7647 20.7635 39.4753 20.6516 39.2338 20.4279C38.9959 20.2006 38.877 19.929 38.877 19.6129C38.877 19.3004 38.9959 19.0323 39.2338 18.8086C39.4753 18.5813 39.7647 18.4677 40.1021 18.4677C40.4395 18.4677 40.7271 18.5813 40.965 18.8086C41.2065 19.0323 41.3272 19.3004 41.3272 19.6129C41.3272 19.929 41.2065 20.2006 40.965 20.4279C40.7271 20.6516 40.4395 20.7635 40.1021 20.7635ZM50.6769 21.8182L47.8165 30H45.2597L42.3992 21.8182H44.7963L46.4955 27.6722H46.5807L48.2746 21.8182H50.6769ZM55.3032 30.1598C54.4616 30.1598 53.7371 29.9893 53.1299 29.6484C52.5262 29.304 52.061 28.8175 51.7343 28.1889C51.4076 27.5568 51.2442 26.8093 51.2442 25.9464C51.2442 25.1048 51.4076 24.3661 51.7343 23.7305C52.061 23.0948 52.5209 22.5994 53.1139 22.2443C53.7105 21.8892 54.4101 21.7116 55.2126 21.7116C55.7524 21.7116 56.2549 21.7987 56.7201 21.9727C57.1888 22.1431 57.5972 22.4006 57.9452 22.745C58.2968 23.0895 58.5702 23.5227 58.7655 24.0447C58.9608 24.5632 59.0585 25.1705 59.0585 25.8665V26.4897H52.1498V25.0835H56.9225C56.9225 24.7567 56.8515 24.4673 56.7094 24.2152C56.5674 23.9631 56.3703 23.766 56.1182 23.6239C55.8696 23.4783 55.5802 23.4055 55.2499 23.4055C54.9055 23.4055 54.6001 23.4854 54.3337 23.6452C54.0709 23.8015 53.865 24.0128 53.7158 24.2791C53.5667 24.5419 53.4903 24.8349 53.4868 25.158V26.495C53.4868 26.8999 53.5613 27.2496 53.7105 27.5444C53.8632 27.8391 54.078 28.0664 54.355 28.2262C54.632 28.386 54.9605 28.4659 55.3405 28.4659C55.5926 28.4659 55.8234 28.4304 56.0329 28.3594C56.2425 28.2884 56.4218 28.1818 56.5709 28.0398C56.7201 27.8977 56.8337 27.7237 56.9118 27.5178L59.0106 27.6562C58.904 28.1605 58.6856 28.6009 58.3554 28.9773C58.0287 29.3501 57.6061 29.6413 57.0876 29.8509C56.5727 30.0568 55.9779 30.1598 55.3032 30.1598ZM70.8185 24.1513L68.7411 24.2791C68.7056 24.1016 68.6293 23.9418 68.5121 23.7997C68.3949 23.6541 68.2404 23.5387 68.0487 23.4535C67.8604 23.3647 67.6349 23.3203 67.3722 23.3203C67.0206 23.3203 66.7241 23.3949 66.4826 23.544C66.2411 23.6896 66.1204 23.8849 66.1204 24.13C66.1204 24.3253 66.1985 24.4904 66.3548 24.6254C66.511 24.7603 66.7791 24.8686 67.1591 24.9503L68.6399 25.2486C69.4354 25.4119 70.0284 25.6747 70.419 26.0369C70.8097 26.3991 71.005 26.875 71.005 27.4645C71.005 28.0007 70.8469 28.4712 70.5309 28.8761C70.2184 29.2809 69.7887 29.5969 69.2418 29.8242C68.6985 30.0479 68.0717 30.1598 67.3615 30.1598C66.2784 30.1598 65.4155 29.9343 64.7727 29.4833C64.1335 29.0288 63.7589 28.4109 63.6488 27.6296L65.8807 27.5124C65.9482 27.8427 66.1115 28.0948 66.3707 28.2688C66.63 28.4393 66.962 28.5245 67.3668 28.5245C67.7646 28.5245 68.0842 28.4482 68.3256 28.2955C68.5707 28.1392 68.695 27.9386 68.6985 27.6935C68.695 27.4876 68.608 27.3189 68.4375 27.1875C68.267 27.0526 68.0043 26.9496 67.6491 26.8786L66.2322 26.5962C65.4332 26.4364 64.8384 26.1594 64.4478 25.7653C64.0607 25.3711 63.8672 24.8686 63.8672 24.2578C63.8672 23.7322 64.0092 23.2795 64.2933 22.8995C64.581 22.5195 64.984 22.2266 65.5025 22.0206C66.0245 21.8146 66.6353 21.7116 67.3349 21.7116C68.3683 21.7116 69.1815 21.93 69.7745 22.3668C70.3711 22.8036 70.7191 23.3984 70.8185 24.1513ZM76.7858 21.8182V23.5227H71.8586V21.8182H76.7858ZM72.9772 19.858H75.2464V27.4858C75.2464 27.6953 75.2783 27.8587 75.3422 27.9759C75.4062 28.0895 75.4949 28.1694 75.6086 28.2156C75.7258 28.2617 75.8607 28.2848 76.0134 28.2848C76.1199 28.2848 76.2265 28.2759 76.333 28.2582C76.4395 28.2369 76.5212 28.2209 76.578 28.2102L76.9349 29.8988C76.8213 29.9343 76.6615 29.9751 76.4555 30.0213C76.2496 30.071 75.9992 30.1012 75.7045 30.1119C75.1576 30.1332 74.6782 30.0604 74.2662 29.8935C73.8579 29.7266 73.54 29.4673 73.3128 29.1158C73.0855 28.7642 72.9736 28.3203 72.9772 27.7841V19.858ZM83.5107 26.5163V21.8182H85.7799V30H83.6013V28.5138H83.5161C83.3314 28.9933 83.0242 29.3786 82.5945 29.6697C82.1684 29.9609 81.6482 30.1065 81.0338 30.1065C80.4869 30.1065 80.0058 29.9822 79.5903 29.7337C79.1748 29.4851 78.8499 29.1317 78.6155 28.6737C78.3847 28.2156 78.2675 27.6669 78.2639 27.0277V21.8182H80.5331V26.6229C80.5367 27.1058 80.6663 27.4876 80.922 27.7681C81.1776 28.0487 81.5203 28.1889 81.95 28.1889C82.2235 28.1889 82.4791 28.1268 82.7171 28.0025C82.955 27.8746 83.1468 27.6864 83.2923 27.4379C83.4415 27.1893 83.5143 26.8821 83.5107 26.5163ZM90.6099 30.1332C89.9885 30.1332 89.4256 29.9734 88.9213 29.6538C88.4206 29.3306 88.0229 28.8565 87.7282 28.2315C87.437 27.603 87.2914 26.8324 87.2914 25.9197C87.2914 24.9822 87.4423 24.2028 87.7441 23.5813C88.046 22.9563 88.4473 22.4893 88.948 22.1804C89.4522 21.8679 90.0044 21.7116 90.6046 21.7116C91.0627 21.7116 91.4444 21.7898 91.7498 21.946C92.0588 22.0987 92.3074 22.2905 92.4956 22.5213C92.6873 22.7486 92.8329 22.9723 92.9324 23.1925H93.0016V19.0909H95.2654V30H93.0282V28.6896H92.9324C92.8258 28.9169 92.6749 29.1424 92.4796 29.3661C92.2878 29.5863 92.0375 29.7692 91.7285 29.9148C91.4231 30.0604 91.0502 30.1332 90.6099 30.1332ZM91.329 28.3274C91.6948 28.3274 92.0037 28.228 92.2559 28.0291C92.5115 27.8267 92.7069 27.5444 92.8418 27.1822C92.9803 26.82 93.0495 26.3956 93.0495 25.9091C93.0495 25.4226 92.9821 25 92.8471 24.6413C92.7122 24.2827 92.5169 24.0057 92.2612 23.8104C92.0055 23.6151 91.6948 23.5174 91.329 23.5174C90.9561 23.5174 90.6419 23.6186 90.3862 23.821C90.1305 24.0234 89.937 24.304 89.8056 24.6626C89.6742 25.0213 89.6085 25.4368 89.6085 25.9091C89.6085 26.3849 89.6742 26.8058 89.8056 27.1715C89.9405 27.5337 90.1341 27.8178 90.3862 28.0238C90.6419 28.2262 90.9561 28.3274 91.329 28.3274ZM97.1311 30V21.8182H99.4003V30H97.1311ZM98.271 20.7635C97.9337 20.7635 97.6443 20.6516 97.4028 20.4279C97.1649 20.2006 97.0459 19.929 97.0459 19.6129C97.0459 19.3004 97.1649 19.0323 97.4028 18.8086C97.6443 18.5813 97.9337 18.4677 98.271 18.4677C98.6084 18.4677 98.896 18.5813 99.134 18.8086C99.3754 19.0323 99.4962 19.3004 99.4962 19.6129C99.4962 19.929 99.3754 20.2006 99.134 20.4279C98.896 20.6516 98.6084 20.7635 98.271 20.7635ZM104.915 30.1598C104.087 30.1598 103.372 29.984 102.768 29.6325C102.168 29.2773 101.705 28.7837 101.378 28.1516C101.051 27.516 100.888 26.7791 100.888 25.9411C100.888 25.0959 101.051 24.3572 101.378 23.7251C101.705 23.0895 102.168 22.5959 102.768 22.2443C103.372 21.8892 104.087 21.7116 104.915 21.7116C105.742 21.7116 106.456 21.8892 107.056 22.2443C107.66 22.5959 108.125 23.0895 108.452 23.7251C108.778 24.3572 108.942 25.0959 108.942 25.9411C108.942 26.7791 108.778 27.516 108.452 28.1516C108.125 28.7837 107.66 29.2773 107.056 29.6325C106.456 29.984 105.742 30.1598 104.915 30.1598ZM104.925 28.402C105.302 28.402 105.616 28.2955 105.868 28.0824C106.12 27.8658 106.31 27.571 106.438 27.1982C106.57 26.8253 106.635 26.4009 106.635 25.9251C106.635 25.4492 106.57 25.0249 106.438 24.652C106.31 24.2791 106.12 23.9844 105.868 23.7678C105.616 23.5511 105.302 23.4428 104.925 23.4428C104.545 23.4428 104.226 23.5511 103.967 23.7678C103.711 23.9844 103.517 24.2791 103.386 24.652C103.258 25.0249 103.194 25.4492 103.194 25.9251C103.194 26.4009 103.258 26.8253 103.386 27.1982C103.517 27.571 103.711 27.8658 103.967 28.0824C104.226 28.2955 104.545 28.402 104.925 28.402ZM118.241 21.8182V23.5227H113.314V21.8182H118.241ZM114.432 19.858H116.701V27.4858C116.701 27.6953 116.733 27.8587 116.797 27.9759C116.861 28.0895 116.95 28.1694 117.064 28.2156C117.181 28.2617 117.316 28.2848 117.468 28.2848C117.575 28.2848 117.682 28.2759 117.788 28.2582C117.895 28.2369 117.976 28.2209 118.033 28.2102L118.39 29.8988C118.276 29.9343 118.117 29.9751 117.911 30.0213C117.705 30.071 117.454 30.1012 117.16 30.1119C116.613 30.1332 116.133 30.0604 115.721 29.8935C115.313 29.7266 114.995 29.4673 114.768 29.1158C114.541 28.7642 114.429 28.3203 114.432 27.7841V19.858ZM122.164 25.2699V30H119.895V19.0909H122.1V23.2617H122.196C122.381 22.7788 122.679 22.4006 123.091 22.1271C123.503 21.8501 124.019 21.7116 124.641 21.7116C125.209 21.7116 125.704 21.8359 126.127 22.0845C126.553 22.3295 126.883 22.6829 127.118 23.1445C127.356 23.6026 127.473 24.1513 127.469 24.7905V30H125.2V25.1953C125.204 24.6911 125.076 24.2987 124.817 24.0181C124.561 23.7376 124.202 23.5973 123.741 23.5973C123.432 23.5973 123.158 23.663 122.92 23.7944C122.686 23.9258 122.501 24.1175 122.366 24.3697C122.235 24.6183 122.168 24.9183 122.164 25.2699ZM131.588 30.1545C131.066 30.1545 130.601 30.0639 130.193 29.8828C129.784 29.6982 129.461 29.4265 129.223 29.0678C128.989 28.7056 128.872 28.2546 128.872 27.7148C128.872 27.2603 128.955 26.8786 129.122 26.5696C129.289 26.2607 129.516 26.0121 129.804 25.8239C130.091 25.6357 130.418 25.4936 130.784 25.3977C131.153 25.3018 131.54 25.2344 131.945 25.1953C132.421 25.1456 132.805 25.0994 133.096 25.0568C133.387 25.0107 133.598 24.9432 133.73 24.8544C133.861 24.7656 133.927 24.6342 133.927 24.4602V24.4283C133.927 24.0909 133.82 23.8299 133.607 23.6452C133.398 23.4606 133.099 23.3683 132.712 23.3683C132.304 23.3683 131.979 23.4588 131.737 23.6399C131.496 23.8175 131.336 24.0412 131.258 24.3111L129.159 24.1406C129.266 23.6435 129.475 23.2138 129.788 22.8516C130.1 22.4858 130.503 22.2053 130.997 22.0099C131.494 21.8111 132.069 21.7116 132.723 21.7116C133.177 21.7116 133.612 21.7649 134.028 21.8714C134.447 21.978 134.818 22.1431 135.141 22.3668C135.468 22.5906 135.725 22.8782 135.914 23.2298C136.102 23.5778 136.196 23.995 136.196 24.4815V30H134.044V28.8654H133.98C133.849 29.1211 133.673 29.3466 133.453 29.5419C133.232 29.7337 132.968 29.8846 132.659 29.9947C132.35 30.1012 131.993 30.1545 131.588 30.1545ZM132.238 28.5884C132.572 28.5884 132.867 28.5227 133.122 28.3913C133.378 28.2564 133.579 28.0753 133.724 27.848C133.87 27.6207 133.943 27.3633 133.943 27.0756V26.2074C133.872 26.2536 133.774 26.2962 133.65 26.3352C133.529 26.3707 133.392 26.4045 133.24 26.4364C133.087 26.4648 132.934 26.4915 132.781 26.5163C132.629 26.5376 132.49 26.5572 132.366 26.5749C132.1 26.614 131.867 26.6761 131.668 26.7614C131.469 26.8466 131.315 26.962 131.205 27.1076C131.095 27.2496 131.04 27.4272 131.04 27.6403C131.04 27.9492 131.151 28.1854 131.375 28.3487C131.602 28.5085 131.89 28.5884 132.238 28.5884ZM142.308 21.8182V23.5227H137.381V21.8182H142.308ZM138.5 19.858H140.769V27.4858C140.769 27.6953 140.801 27.8587 140.865 27.9759C140.929 28.0895 141.017 28.1694 141.131 28.2156C141.248 28.2617 141.383 28.2848 141.536 28.2848C141.642 28.2848 141.749 28.2759 141.855 28.2582C141.962 28.2369 142.044 28.2209 142.1 28.2102L142.457 29.8988C142.344 29.9343 142.184 29.9751 141.978 30.0213C141.772 30.071 141.522 30.1012 141.227 30.1119C140.68 30.1332 140.201 30.0604 139.789 29.8935C139.38 29.7266 139.063 29.4673 138.835 29.1158C138.608 28.7642 138.496 28.3203 138.5 27.7841V19.858ZM147.258 30V21.8182H149.458V23.2457H149.543C149.692 22.7379 149.943 22.3544 150.294 22.0952C150.646 21.8324 151.051 21.701 151.509 21.701C151.622 21.701 151.745 21.7081 151.876 21.7223C152.008 21.7365 152.123 21.756 152.223 21.7809V23.7944C152.116 23.7624 151.969 23.734 151.78 23.7092C151.592 23.6843 151.42 23.6719 151.264 23.6719C150.93 23.6719 150.632 23.7447 150.369 23.8903C150.11 24.0323 149.904 24.2312 149.751 24.4869C149.602 24.7425 149.527 25.0373 149.527 25.3711V30H147.258ZM155.494 30.1545C154.972 30.1545 154.507 30.0639 154.099 29.8828C153.691 29.6982 153.367 29.4265 153.129 29.0678C152.895 28.7056 152.778 28.2546 152.778 27.7148C152.778 27.2603 152.861 26.8786 153.028 26.5696C153.195 26.2607 153.422 26.0121 153.71 25.8239C153.998 25.6357 154.324 25.4936 154.69 25.3977C155.059 25.3018 155.447 25.2344 155.851 25.1953C156.327 25.1456 156.711 25.0994 157.002 25.0568C157.293 25.0107 157.504 24.9432 157.636 24.8544C157.767 24.7656 157.833 24.6342 157.833 24.4602V24.4283C157.833 24.0909 157.726 23.8299 157.513 23.6452C157.304 23.4606 157.006 23.3683 156.618 23.3683C156.21 23.3683 155.885 23.4588 155.644 23.6399C155.402 23.8175 155.242 24.0412 155.164 24.3111L153.066 24.1406C153.172 23.6435 153.382 23.2138 153.694 22.8516C154.007 22.4858 154.41 22.2053 154.903 22.0099C155.4 21.8111 155.976 21.7116 156.629 21.7116C157.084 21.7116 157.519 21.7649 157.934 21.8714C158.353 21.978 158.724 22.1431 159.047 22.3668C159.374 22.5906 159.632 22.8782 159.82 23.2298C160.008 23.5778 160.102 23.995 160.102 24.4815V30H157.95V28.8654H157.886C157.755 29.1211 157.579 29.3466 157.359 29.5419C157.139 29.7337 156.874 29.8846 156.565 29.9947C156.256 30.1012 155.899 30.1545 155.494 30.1545ZM156.144 28.5884C156.478 28.5884 156.773 28.5227 157.029 28.3913C157.284 28.2564 157.485 28.0753 157.631 27.848C157.776 27.6207 157.849 27.3633 157.849 27.0756V26.2074C157.778 26.2536 157.68 26.2962 157.556 26.3352C157.435 26.3707 157.298 26.4045 157.146 26.4364C156.993 26.4648 156.84 26.4915 156.688 26.5163C156.535 26.5376 156.396 26.5572 156.272 26.5749C156.006 26.614 155.773 26.6761 155.574 26.7614C155.376 26.8466 155.221 26.962 155.111 27.1076C155.001 27.2496 154.946 27.4272 154.946 27.6403C154.946 27.9492 155.058 28.1854 155.281 28.3487C155.509 28.5085 155.796 28.5884 156.144 28.5884ZM161.863 30V21.8182H164.132V30H161.863ZM163.002 20.7635C162.665 20.7635 162.376 20.6516 162.134 20.4279C161.896 20.2006 161.777 19.929 161.777 19.6129C161.777 19.3004 161.896 19.0323 162.134 18.8086C162.376 18.5813 162.665 18.4677 163.002 18.4677C163.34 18.4677 163.627 18.5813 163.865 18.8086C164.107 19.0323 164.228 19.3004 164.228 19.6129C164.228 19.929 164.107 20.2006 163.865 20.4279C163.627 20.6516 163.34 20.7635 163.002 20.7635ZM172.757 24.1513L170.68 24.2791C170.644 24.1016 170.568 23.9418 170.451 23.7997C170.333 23.6541 170.179 23.5387 169.987 23.4535C169.799 23.3647 169.573 23.3203 169.311 23.3203C168.959 23.3203 168.663 23.3949 168.421 23.544C168.18 23.6896 168.059 23.8849 168.059 24.13C168.059 24.3253 168.137 24.4904 168.293 24.6254C168.449 24.7603 168.718 24.8686 169.098 24.9503L170.578 25.2486C171.374 25.4119 171.967 25.6747 172.358 26.0369C172.748 26.3991 172.943 26.875 172.943 27.4645C172.943 28.0007 172.785 28.4712 172.469 28.8761C172.157 29.2809 171.727 29.5969 171.18 29.8242C170.637 30.0479 170.01 30.1598 169.3 30.1598C168.217 30.1598 167.354 29.9343 166.711 29.4833C166.072 29.0288 165.697 28.4109 165.587 27.6296L167.819 27.5124C167.887 27.8427 168.05 28.0948 168.309 28.2688C168.568 28.4393 168.9 28.5245 169.305 28.5245C169.703 28.5245 170.023 28.4482 170.264 28.2955C170.509 28.1392 170.633 27.9386 170.637 27.6935C170.633 27.4876 170.546 27.3189 170.376 27.1875C170.206 27.0526 169.943 26.9496 169.588 26.8786L168.171 26.5962C167.372 26.4364 166.777 26.1594 166.386 25.7653C165.999 25.3711 165.806 24.8686 165.806 24.2578C165.806 23.7322 165.948 23.2795 166.232 22.8995C166.519 22.5195 166.922 22.2266 167.441 22.0206C167.963 21.8146 168.574 21.7116 169.273 21.7116C170.307 21.7116 171.12 21.93 171.713 22.3668C172.31 22.8036 172.658 23.3984 172.757 24.1513ZM178.101 30.1598C177.259 30.1598 176.535 29.9893 175.928 29.6484C175.324 29.304 174.859 28.8175 174.532 28.1889C174.205 27.5568 174.042 26.8093 174.042 25.9464C174.042 25.1048 174.205 24.3661 174.532 23.7305C174.859 23.0948 175.319 22.5994 175.912 22.2443C176.508 21.8892 177.208 21.7116 178.01 21.7116C178.55 21.7116 179.053 21.7987 179.518 21.9727C179.987 22.1431 180.395 22.4006 180.743 22.745C181.095 23.0895 181.368 23.5227 181.563 24.0447C181.759 24.5632 181.856 25.1705 181.856 25.8665V26.4897H174.948V25.0835H179.72C179.72 24.7567 179.649 24.4673 179.507 24.2152C179.365 23.9631 179.168 23.766 178.916 23.6239C178.667 23.4783 178.378 23.4055 178.048 23.4055C177.703 23.4055 177.398 23.4854 177.132 23.6452C176.869 23.8015 176.663 24.0128 176.514 24.2791C176.365 24.5419 176.288 24.8349 176.285 25.158V26.495C176.285 26.8999 176.359 27.2496 176.508 27.5444C176.661 27.8391 176.876 28.0664 177.153 28.2262C177.43 28.386 177.758 28.4659 178.138 28.4659C178.39 28.4659 178.621 28.4304 178.831 28.3594C179.04 28.2884 179.22 28.1818 179.369 28.0398C179.518 27.8977 179.632 27.7237 179.71 27.5178L181.808 27.6562C181.702 28.1605 181.483 28.6009 181.153 28.9773C180.827 29.3501 180.404 29.6413 179.885 29.8509C179.371 30.0568 178.776 30.1598 178.101 30.1598ZM190.145 24.1513L188.067 24.2791C188.032 24.1016 187.955 23.9418 187.838 23.7997C187.721 23.6541 187.567 23.5387 187.375 23.4535C187.187 23.3647 186.961 23.3203 186.698 23.3203C186.347 23.3203 186.05 23.3949 185.809 23.544C185.567 23.6896 185.447 23.8849 185.447 24.13C185.447 24.3253 185.525 24.4904 185.681 24.6254C185.837 24.7603 186.105 24.8686 186.485 24.9503L187.966 25.2486C188.762 25.4119 189.355 25.6747 189.745 26.0369C190.136 26.3991 190.331 26.875 190.331 27.4645C190.331 28.0007 190.173 28.4712 189.857 28.8761C189.545 29.2809 189.115 29.5969 188.568 29.8242C188.025 30.0479 187.398 30.1598 186.688 30.1598C185.605 30.1598 184.742 29.9343 184.099 29.4833C183.46 29.0288 183.085 28.4109 182.975 27.6296L185.207 27.5124C185.274 27.8427 185.438 28.0948 185.697 28.2688C185.956 28.4393 186.288 28.5245 186.693 28.5245C187.091 28.5245 187.41 28.4482 187.652 28.2955C187.897 28.1392 188.021 27.9386 188.025 27.6935C188.021 27.4876 187.934 27.3189 187.764 27.1875C187.593 27.0526 187.33 26.9496 186.975 26.8786L185.558 26.5962C184.759 26.4364 184.165 26.1594 183.774 25.7653C183.387 25.3711 183.193 24.8686 183.193 24.2578C183.193 23.7322 183.335 23.2795 183.619 22.8995C183.907 22.5195 184.31 22.2266 184.829 22.0206C185.351 21.8146 185.961 21.7116 186.661 21.7116C187.694 21.7116 188.508 21.93 189.101 22.3668C189.697 22.8036 190.045 23.3984 190.145 24.1513ZM197.565 30.1545C197.043 30.1545 196.578 30.0639 196.169 29.8828C195.761 29.6982 195.438 29.4265 195.2 29.0678C194.965 28.7056 194.848 28.2546 194.848 27.7148C194.848 27.2603 194.932 26.8786 195.099 26.5696C195.265 26.2607 195.493 26.0121 195.78 25.8239C196.068 25.6357 196.395 25.4936 196.76 25.3977C197.13 25.3018 197.517 25.2344 197.922 25.1953C198.398 25.1456 198.781 25.0994 199.072 25.0568C199.363 25.0107 199.575 24.9432 199.706 24.8544C199.838 24.7656 199.903 24.6342 199.903 24.4602V24.4283C199.903 24.0909 199.797 23.8299 199.584 23.6452C199.374 23.4606 199.076 23.3683 198.689 23.3683C198.28 23.3683 197.955 23.4588 197.714 23.6399C197.472 23.8175 197.313 24.0412 197.235 24.3111L195.136 24.1406C195.242 23.6435 195.452 23.2138 195.764 22.8516C196.077 22.4858 196.48 22.2053 196.974 22.0099C197.471 21.8111 198.046 21.7116 198.699 21.7116C199.154 21.7116 199.589 21.7649 200.004 21.8714C200.423 21.978 200.795 22.1431 201.118 22.3668C201.444 22.5906 201.702 22.8782 201.89 23.2298C202.078 23.5778 202.172 23.995 202.172 24.4815V30H200.02V28.8654H199.956C199.825 29.1211 199.649 29.3466 199.429 29.5419C199.209 29.7337 198.944 29.8846 198.635 29.9947C198.327 30.1012 197.97 30.1545 197.565 30.1545ZM198.215 28.5884C198.548 28.5884 198.843 28.5227 199.099 28.3913C199.355 28.2564 199.555 28.0753 199.701 27.848C199.846 27.6207 199.919 27.3633 199.919 27.0756V26.2074C199.848 26.2536 199.751 26.2962 199.626 26.3352C199.506 26.3707 199.369 26.4045 199.216 26.4364C199.063 26.4648 198.911 26.4915 198.758 26.5163C198.605 26.5376 198.467 26.5572 198.343 26.5749C198.076 26.614 197.844 26.6761 197.645 26.7614C197.446 26.8466 197.291 26.962 197.181 27.1076C197.071 27.2496 197.016 27.4272 197.016 27.6403C197.016 27.9492 197.128 28.1854 197.352 28.3487C197.579 28.5085 197.867 28.5884 198.215 28.5884ZM211.091 33.2386C210.356 33.2386 209.725 33.1374 209.2 32.935C208.678 32.7362 208.262 32.4645 207.953 32.12C207.644 31.7756 207.444 31.3885 207.351 30.9588L209.45 30.6765C209.514 30.8398 209.615 30.9925 209.754 31.1346C209.892 31.2766 210.075 31.3903 210.302 31.4755C210.533 31.5643 210.814 31.6087 211.144 31.6087C211.638 31.6087 212.044 31.4879 212.364 31.2464C212.687 31.0085 212.848 30.609 212.848 30.0479V28.5511H212.753C212.653 28.7784 212.504 28.9933 212.305 29.1957C212.106 29.3981 211.851 29.5632 211.538 29.6911C211.226 29.8189 210.853 29.8828 210.419 29.8828C209.805 29.8828 209.246 29.7408 208.742 29.4567C208.241 29.169 207.841 28.7305 207.543 28.141C207.248 27.5479 207.101 26.7987 207.101 25.8931C207.101 24.9663 207.252 24.1921 207.554 23.5707C207.856 22.9492 208.257 22.484 208.758 22.1751C209.262 21.8661 209.814 21.7116 210.414 21.7116C210.872 21.7116 211.256 21.7898 211.565 21.946C211.874 22.0987 212.122 22.2905 212.31 22.5213C212.502 22.7486 212.65 22.9723 212.753 23.1925H212.838V21.8182H215.091V30.0799C215.091 30.7759 214.921 31.3583 214.58 31.8271C214.239 32.2958 213.766 32.6474 213.163 32.8817C212.563 33.1197 211.872 33.2386 211.091 33.2386ZM211.139 28.1783C211.504 28.1783 211.813 28.0877 212.065 27.9066C212.321 27.7219 212.516 27.4592 212.651 27.1183C212.79 26.7738 212.859 26.3619 212.859 25.8825C212.859 25.4031 212.792 24.9876 212.657 24.636C212.522 24.2809 212.326 24.0057 212.071 23.8104C211.815 23.6151 211.504 23.5174 211.139 23.5174C210.766 23.5174 210.451 23.6186 210.196 23.821C209.94 24.0199 209.747 24.2969 209.615 24.652C209.484 25.0071 209.418 25.4173 209.418 25.8825C209.418 26.3548 209.484 26.7631 209.615 27.1076C209.75 27.4485 209.944 27.7131 210.196 27.9013C210.451 28.0859 210.766 28.1783 211.139 28.1783ZM219.166 19.0909V30H216.897V19.0909H219.166ZM223.317 30.1545C222.795 30.1545 222.33 30.0639 221.921 29.8828C221.513 29.6982 221.19 29.4265 220.952 29.0678C220.717 28.7056 220.6 28.2546 220.6 27.7148C220.6 27.2603 220.684 26.8786 220.85 26.5696C221.017 26.2607 221.245 26.0121 221.532 25.8239C221.82 25.6357 222.147 25.4936 222.512 25.3977C222.882 25.3018 223.269 25.2344 223.674 25.1953C224.15 25.1456 224.533 25.0994 224.824 25.0568C225.115 25.0107 225.327 24.9432 225.458 24.8544C225.589 24.7656 225.655 24.6342 225.655 24.4602V24.4283C225.655 24.0909 225.549 23.8299 225.336 23.6452C225.126 23.4606 224.828 23.3683 224.441 23.3683C224.032 23.3683 223.707 23.4588 223.466 23.6399C223.224 23.8175 223.065 24.0412 222.987 24.3111L220.888 24.1406C220.994 23.6435 221.204 23.2138 221.516 22.8516C221.829 22.4858 222.232 22.2053 222.725 22.0099C223.223 21.8111 223.798 21.7116 224.451 21.7116C224.906 21.7116 225.341 21.7649 225.756 21.8714C226.175 21.978 226.547 22.1431 226.87 22.3668C227.196 22.5906 227.454 22.8782 227.642 23.2298C227.83 23.5778 227.924 23.995 227.924 24.4815V30H225.772V28.8654H225.708C225.577 29.1211 225.401 29.3466 225.181 29.5419C224.961 29.7337 224.696 29.8846 224.387 29.9947C224.078 30.1012 223.722 30.1545 223.317 30.1545ZM223.967 28.5884C224.3 28.5884 224.595 28.5227 224.851 28.3913C225.107 28.2564 225.307 28.0753 225.453 27.848C225.598 27.6207 225.671 27.3633 225.671 27.0756V26.2074C225.6 26.2536 225.502 26.2962 225.378 26.3352C225.257 26.3707 225.121 26.4045 224.968 26.4364C224.815 26.4648 224.663 26.4915 224.51 26.5163C224.357 26.5376 224.219 26.5572 224.094 26.5749C223.828 26.614 223.596 26.6761 223.397 26.7614C223.198 26.8466 223.043 26.962 222.933 27.1076C222.823 27.2496 222.768 27.4272 222.768 27.6403C222.768 27.9492 222.88 28.1854 223.104 28.3487C223.331 28.5085 223.619 28.5884 223.967 28.5884ZM236.492 24.1513L234.415 24.2791C234.379 24.1016 234.303 23.9418 234.186 23.7997C234.069 23.6541 233.914 23.5387 233.722 23.4535C233.534 23.3647 233.309 23.3203 233.046 23.3203C232.694 23.3203 232.398 23.3949 232.156 23.544C231.915 23.6896 231.794 23.8849 231.794 24.13C231.794 24.3253 231.872 24.4904 232.029 24.6254C232.185 24.7603 232.453 24.8686 232.833 24.9503L234.314 25.2486C235.109 25.4119 235.702 25.6747 236.093 26.0369C236.483 26.3991 236.679 26.875 236.679 27.4645C236.679 28.0007 236.521 28.4712 236.205 28.8761C235.892 29.2809 235.463 29.5969 234.916 29.8242C234.372 30.0479 233.746 30.1598 233.035 30.1598C231.952 30.1598 231.089 29.9343 230.447 29.4833C229.807 29.0288 229.433 28.4109 229.323 27.6296L231.555 27.5124C231.622 27.8427 231.785 28.0948 232.045 28.2688C232.304 28.4393 232.636 28.5245 233.041 28.5245C233.438 28.5245 233.758 28.4482 233.999 28.2955C234.244 28.1392 234.369 27.9386 234.372 27.6935C234.369 27.4876 234.282 27.3189 234.111 27.1875C233.941 27.0526 233.678 26.9496 233.323 26.8786L231.906 26.5962C231.107 26.4364 230.512 26.1594 230.122 25.7653C229.735 25.3711 229.541 24.8686 229.541 24.2578C229.541 23.7322 229.683 23.2795 229.967 22.8995C230.255 22.5195 230.658 22.2266 231.176 22.0206C231.698 21.8146 232.309 21.7116 233.009 21.7116C234.042 21.7116 234.855 21.93 235.448 22.3668C236.045 22.8036 236.393 23.3984 236.492 24.1513ZM244.915 24.1513L242.838 24.2791C242.802 24.1016 242.726 23.9418 242.609 23.7997C242.492 23.6541 242.337 23.5387 242.145 23.4535C241.957 23.3647 241.732 23.3203 241.469 23.3203C241.117 23.3203 240.821 23.3949 240.579 23.544C240.338 23.6896 240.217 23.8849 240.217 24.13C240.217 24.3253 240.295 24.4904 240.451 24.6254C240.608 24.7603 240.876 24.8686 241.256 24.9503L242.737 25.2486C243.532 25.4119 244.125 25.6747 244.516 26.0369C244.906 26.3991 245.102 26.875 245.102 27.4645C245.102 28.0007 244.944 28.4712 244.628 28.8761C244.315 29.2809 243.885 29.5969 243.339 29.8242C242.795 30.0479 242.168 30.1598 241.458 30.1598C240.375 30.1598 239.512 29.9343 238.869 29.4833C238.23 29.0288 237.856 28.4109 237.745 27.6296L239.977 27.5124C240.045 27.8427 240.208 28.0948 240.467 28.2688C240.727 28.4393 241.059 28.5245 241.464 28.5245C241.861 28.5245 242.181 28.4482 242.422 28.2955C242.667 28.1392 242.792 27.9386 242.795 27.6935C242.792 27.4876 242.705 27.3189 242.534 27.1875C242.364 27.0526 242.101 26.9496 241.746 26.8786L240.329 26.5962C239.53 26.4364 238.935 26.1594 238.544 25.7653C238.157 25.3711 237.964 24.8686 237.964 24.2578C237.964 23.7322 238.106 23.2795 238.39 22.8995C238.678 22.5195 239.081 22.2266 239.599 22.0206C240.121 21.8146 240.732 21.7116 241.432 21.7116C242.465 21.7116 243.278 21.93 243.871 22.3668C244.468 22.8036 244.816 23.3984 244.915 24.1513ZM5.25746 39.8182V41.5227H0.330256V39.8182H5.25746ZM1.44886 37.858H3.71804V45.4858C3.71804 45.6953 3.75 45.8587 3.81392 45.9759C3.87784 46.0895 3.96662 46.1694 4.08026 46.2156C4.19744 46.2617 4.33239 46.2848 4.48509 46.2848C4.59162 46.2848 4.69815 46.2759 4.80469 46.2582C4.91122 46.2369 4.9929 46.2209 5.04972 46.2102L5.40661 47.8988C5.29297 47.9343 5.13317 47.9751 4.9272 48.0213C4.72124 48.071 4.47088 48.1012 4.17614 48.1119C3.62926 48.1332 3.14986 48.0604 2.73793 47.8935C2.32955 47.7266 2.01172 47.4673 1.78445 47.1158C1.55717 46.7642 1.44531 46.3203 1.44886 45.7841V37.858ZM10.3445 48.1598C9.51705 48.1598 8.80149 47.984 8.1978 47.6325C7.59766 47.2773 7.13423 46.7837 6.80753 46.1516C6.48082 45.516 6.31747 44.7791 6.31747 43.9411C6.31747 43.0959 6.48082 42.3572 6.80753 41.7251C7.13423 41.0895 7.59766 40.5959 8.1978 40.2443C8.80149 39.8892 9.51705 39.7116 10.3445 39.7116C11.1719 39.7116 11.8857 39.8892 12.4858 40.2443C13.0895 40.5959 13.5547 41.0895 13.8814 41.7251C14.2081 42.3572 14.3714 43.0959 14.3714 43.9411C14.3714 44.7791 14.2081 45.516 13.8814 46.1516C13.5547 46.7837 13.0895 47.2773 12.4858 47.6325C11.8857 47.984 11.1719 48.1598 10.3445 48.1598ZM10.3551 46.402C10.7315 46.402 11.0458 46.2955 11.2979 46.0824C11.5501 45.8658 11.7401 45.571 11.8679 45.1982C11.9993 44.8253 12.065 44.4009 12.065 43.9251C12.065 43.4492 11.9993 43.0249 11.8679 42.652C11.7401 42.2791 11.5501 41.9844 11.2979 41.7678C11.0458 41.5511 10.7315 41.4428 10.3551 41.4428C9.97514 41.4428 9.65554 41.5511 9.39631 41.7678C9.14063 41.9844 8.94709 42.2791 8.8157 42.652C8.68786 43.0249 8.62393 43.4492 8.62393 43.9251C8.62393 44.4009 8.68786 44.8253 8.8157 45.1982C8.94709 45.571 9.14063 45.8658 9.39631 46.0824C9.65554 46.2955 9.97514 46.402 10.3551 46.402ZM19.3612 48V37.0909H21.6304V41.1925H21.6997C21.7991 40.9723 21.9429 40.7486 22.1311 40.5213C22.3229 40.2905 22.5715 40.0987 22.8769 39.946C23.1858 39.7898 23.5693 39.7116 24.0274 39.7116C24.624 39.7116 25.1744 39.8679 25.6787 40.1804C26.183 40.4893 26.586 40.9563 26.8879 41.5813C27.1897 42.2028 27.3406 42.9822 27.3406 43.9197C27.3406 44.8324 27.1933 45.603 26.8985 46.2315C26.6073 46.8565 26.2096 47.3306 25.7053 47.6538C25.2046 47.9734 24.6436 48.1332 24.0221 48.1332C23.5818 48.1332 23.2071 48.0604 22.8982 47.9148C22.5928 47.7692 22.3424 47.5863 22.1471 47.3661C21.9518 47.1424 21.8026 46.9169 21.6997 46.6896H21.5985V48H19.3612ZM21.5825 43.9091C21.5825 44.3956 21.6499 44.82 21.7849 45.1822C21.9198 45.5444 22.1151 45.8267 22.3708 46.0291C22.6265 46.228 22.9372 46.3274 23.303 46.3274C23.6723 46.3274 23.9848 46.2262 24.2405 46.0238C24.4962 45.8178 24.6897 45.5337 24.8211 45.1715C24.9561 44.8058 25.0235 44.3849 25.0235 43.9091C25.0235 43.4368 24.9578 43.0213 24.8264 42.6626C24.695 42.304 24.5015 42.0234 24.2458 41.821C23.9901 41.6186 23.6759 41.5174 23.303 41.5174C22.9337 41.5174 22.6212 41.6151 22.3655 41.8104C22.1134 42.0057 21.9198 42.2827 21.7849 42.6413C21.6499 43 21.5825 43.4226 21.5825 43.9091ZM28.8548 48V39.8182H31.0547V41.2457H31.1399C31.2891 40.7379 31.5394 40.3544 31.891 40.0952C32.2425 39.8324 32.6474 39.701 33.1055 39.701C33.2191 39.701 33.3416 39.7081 33.473 39.7223C33.6044 39.7365 33.7198 39.756 33.8192 39.7809V41.7944C33.7127 41.7624 33.5653 41.734 33.3771 41.7092C33.1889 41.6843 33.0167 41.6719 32.8604 41.6719C32.5266 41.6719 32.2283 41.7447 31.9656 41.8903C31.7063 42.0323 31.5004 42.2312 31.3477 42.4869C31.1985 42.7425 31.1239 43.0373 31.1239 43.3711V48H28.8548ZM37.0912 48.1545C36.5692 48.1545 36.104 48.0639 35.6956 47.8828C35.2872 47.6982 34.964 47.4265 34.7261 47.0678C34.4917 46.7056 34.3746 46.2546 34.3746 45.7148C34.3746 45.2603 34.458 44.8786 34.6249 44.5696C34.7918 44.2607 35.0191 44.0121 35.3067 43.8239C35.5944 43.6357 35.9211 43.4936 36.2868 43.3977C36.6562 43.3018 37.0432 43.2344 37.4481 43.1953C37.9239 43.1456 38.3074 43.0994 38.5986 43.0568C38.8898 43.0107 39.1011 42.9432 39.2325 42.8544C39.3639 42.7656 39.4296 42.6342 39.4296 42.4602V42.4283C39.4296 42.0909 39.3231 41.8299 39.11 41.6452C38.9005 41.4606 38.6022 41.3683 38.2151 41.3683C37.8067 41.3683 37.4818 41.4588 37.2403 41.6399C36.9988 41.8175 36.839 42.0412 36.7609 42.3111L34.6622 42.1406C34.7687 41.6435 34.9782 41.2138 35.2907 40.8516C35.6032 40.4858 36.0063 40.2053 36.4999 40.0099C36.9971 39.8111 37.5724 39.7116 38.2258 39.7116C38.6803 39.7116 39.1153 39.7649 39.5308 39.8714C39.9498 39.978 40.3209 40.1431 40.6441 40.3668C40.9708 40.5906 41.2282 40.8782 41.4165 41.2298C41.6047 41.5778 41.6988 41.995 41.6988 42.4815V48H39.5468V46.8654H39.4829C39.3515 47.1211 39.1757 47.3466 38.9555 47.5419C38.7354 47.7337 38.4708 47.8846 38.1618 47.9947C37.8529 48.1012 37.496 48.1545 37.0912 48.1545ZM37.741 46.5884C38.0748 46.5884 38.3696 46.5227 38.6253 46.3913C38.8809 46.2564 39.0816 46.0753 39.2272 45.848C39.3728 45.6207 39.4456 45.3633 39.4456 45.0756V44.2074C39.3746 44.2536 39.2769 44.2962 39.1526 44.3352C39.0319 44.3707 38.8952 44.4045 38.7425 44.4364C38.5898 44.4648 38.4371 44.4915 38.2844 44.5163C38.1317 44.5376 37.9932 44.5572 37.8689 44.5749C37.6025 44.614 37.3699 44.6761 37.1711 44.7614C36.9722 44.8466 36.8177 44.962 36.7077 45.1076C36.5976 45.2496 36.5425 45.4272 36.5425 45.6403C36.5425 45.9492 36.6544 46.1854 36.8781 46.3487C37.1054 46.5085 37.393 46.5884 37.741 46.5884ZM45.7284 43.2699V48H43.4593V39.8182H45.6219V41.2617H45.7178C45.8989 40.7859 46.2025 40.4094 46.6286 40.1325C47.0548 39.8519 47.5715 39.7116 48.1787 39.7116C48.7469 39.7116 49.2423 39.8359 49.6649 40.0845C50.0874 40.3331 50.4159 40.6882 50.6503 41.1499C50.8847 41.608 51.0019 42.1548 51.0019 42.7905V48H48.7327V43.1953C48.7362 42.6946 48.6084 42.304 48.3492 42.0234C48.0899 41.7393 47.733 41.5973 47.2785 41.5973C46.9731 41.5973 46.7032 41.663 46.4688 41.7944C46.238 41.9258 46.0569 42.1175 45.9255 42.3697C45.7977 42.6183 45.732 42.9183 45.7284 43.2699ZM55.8052 48.1332C55.1838 48.1332 54.6209 47.9734 54.1167 47.6538C53.6159 47.3306 53.2182 46.8565 52.9235 46.2315C52.6323 45.603 52.4867 44.8324 52.4867 43.9197C52.4867 42.9822 52.6376 42.2028 52.9395 41.5813C53.2413 40.9563 53.6426 40.4893 54.1433 40.1804C54.6475 39.8679 55.1998 39.7116 55.7999 39.7116C56.258 39.7116 56.6397 39.7898 56.9451 39.946C57.2541 40.0987 57.5027 40.2905 57.6909 40.5213C57.8826 40.7486 58.0282 40.9723 58.1277 41.1925H58.1969V37.0909H60.4608V48H58.2235V46.6896H58.1277C58.0211 46.9169 57.8702 47.1424 57.6749 47.3661C57.4831 47.5863 57.2328 47.7692 56.9238 47.9148C56.6184 48.0604 56.2456 48.1332 55.8052 48.1332ZM56.5243 46.3274C56.8901 46.3274 57.199 46.228 57.4512 46.0291C57.7069 45.8267 57.9022 45.5444 58.0371 45.1822C58.1756 44.82 58.2449 44.3956 58.2449 43.9091C58.2449 43.4226 58.1774 43 58.0424 42.6413C57.9075 42.2827 57.7122 42.0057 57.4565 41.8104C57.2008 41.6151 56.8901 41.5174 56.5243 41.5174C56.1515 41.5174 55.8372 41.6186 55.5815 41.821C55.3258 42.0234 55.1323 42.304 55.0009 42.6626C54.8695 43.0213 54.8038 43.4368 54.8038 43.9091C54.8038 44.3849 54.8695 44.8058 55.0009 45.1715C55.1358 45.5337 55.3294 45.8178 55.5815 46.0238C55.8372 46.2262 56.1515 46.3274 56.5243 46.3274ZM69.134 42.1513L67.0566 42.2791C67.021 42.1016 66.9447 41.9418 66.8275 41.7997C66.7103 41.6541 66.5558 41.5387 66.3641 41.4535C66.1759 41.3647 65.9504 41.3203 65.6876 41.3203C65.336 41.3203 65.0395 41.3949 64.798 41.544C64.5566 41.6896 64.4358 41.8849 64.4358 42.13C64.4358 42.3253 64.5139 42.4904 64.6702 42.6254C64.8264 42.7603 65.0945 42.8686 65.4745 42.9503L66.9553 43.2486C67.7508 43.4119 68.3438 43.6747 68.7345 44.0369C69.1251 44.3991 69.3204 44.875 69.3204 45.4645C69.3204 46.0007 69.1624 46.4712 68.8463 46.8761C68.5338 47.2809 68.1041 47.5969 67.5573 47.8242C67.0139 48.0479 66.3872 48.1598 65.6769 48.1598C64.5938 48.1598 63.7309 47.9343 63.0882 47.4833C62.449 47.0288 62.0743 46.4109 61.9642 45.6296L64.1961 45.5124C64.2636 45.8427 64.4269 46.0948 64.6862 46.2688C64.9454 46.4393 65.2774 46.5245 65.6823 46.5245C66.08 46.5245 66.3996 46.4482 66.6411 46.2955C66.8861 46.1392 67.0104 45.9386 67.0139 45.6935C67.0104 45.4876 66.9234 45.3189 66.7529 45.1875C66.5825 45.0526 66.3197 44.9496 65.9646 44.8786L64.5477 44.5962C63.7487 44.4364 63.1539 44.1594 62.7632 43.7653C62.3762 43.3711 62.1826 42.8686 62.1826 42.2578C62.1826 41.7322 62.3247 41.2795 62.6088 40.8995C62.8964 40.5195 63.2994 40.2266 63.8179 40.0206C64.3399 39.8146 64.9507 39.7116 65.6503 39.7116C66.6837 39.7116 67.4969 39.93 68.0899 40.3668C68.6865 40.8036 69.0345 41.3984 69.134 42.1513ZM76.5541 48.1545C76.032 48.1545 75.5669 48.0639 75.1585 47.8828C74.7501 47.6982 74.4269 47.4265 74.189 47.0678C73.9546 46.7056 73.8374 46.2546 73.8374 45.7148C73.8374 45.2603 73.9209 44.8786 74.0878 44.5696C74.2547 44.2607 74.482 44.0121 74.7696 43.8239C75.0573 43.6357 75.384 43.4936 75.7497 43.3977C76.1191 43.3018 76.5061 43.2344 76.911 43.1953C77.3868 43.1456 77.7703 43.0994 78.0615 43.0568C78.3527 43.0107 78.564 42.9432 78.6954 42.8544C78.8268 42.7656 78.8925 42.6342 78.8925 42.4602V42.4283C78.8925 42.0909 78.786 41.8299 78.5729 41.6452C78.3634 41.4606 78.0651 41.3683 77.678 41.3683C77.2696 41.3683 76.9447 41.4588 76.7032 41.6399C76.4617 41.8175 76.3019 42.0412 76.2238 42.3111L74.1251 42.1406C74.2316 41.6435 74.4411 41.2138 74.7536 40.8516C75.0661 40.4858 75.4692 40.2053 75.9628 40.0099C76.46 39.8111 77.0352 39.7116 77.6887 39.7116C78.1432 39.7116 78.5782 39.7649 78.9937 39.8714C79.4127 39.978 79.7838 40.1431 80.107 40.3668C80.4337 40.5906 80.6911 40.8782 80.8794 41.2298C81.0676 41.5778 81.1617 41.995 81.1617 42.4815V48H79.0097V46.8654H78.9458C78.8144 47.1211 78.6386 47.3466 78.4184 47.5419C78.1982 47.7337 77.9337 47.8846 77.6247 47.9947C77.3158 48.1012 76.9589 48.1545 76.5541 48.1545ZM77.2039 46.5884C77.5377 46.5884 77.8325 46.5227 78.0882 46.3913C78.3438 46.2564 78.5445 46.0753 78.6901 45.848C78.8357 45.6207 78.9085 45.3633 78.9085 45.0756V44.2074C78.8374 44.2536 78.7398 44.2962 78.6155 44.3352C78.4948 44.3707 78.358 44.4045 78.2053 44.4364C78.0526 44.4648 77.8999 44.4915 77.7472 44.5163C77.5945 44.5376 77.4561 44.5572 77.3318 44.5749C77.0654 44.614 76.8328 44.6761 76.634 44.7614C76.4351 44.8466 76.2806 44.962 76.1705 45.1076C76.0605 45.2496 76.0054 45.4272 76.0054 45.6403C76.0054 45.9492 76.1173 46.1854 76.341 46.3487C76.5683 46.5085 76.8559 46.5884 77.2039 46.5884ZM85.1913 43.2699V48H82.9221V39.8182H85.0848V41.2617H85.1807C85.3618 40.7859 85.6654 40.4094 86.0915 40.1325C86.5177 39.8519 87.0344 39.7116 87.6416 39.7116C88.2098 39.7116 88.7052 39.8359 89.1278 40.0845C89.5503 40.3331 89.8788 40.6882 90.1132 41.1499C90.3476 41.608 90.4648 42.1548 90.4648 42.7905V48H88.1956V43.1953C88.1991 42.6946 88.0713 42.304 87.8121 42.0234C87.5528 41.7393 87.1959 41.5973 86.7414 41.5973C86.436 41.5973 86.1661 41.663 85.9317 41.7944C85.7009 41.9258 85.5198 42.1175 85.3884 42.3697C85.2606 42.6183 85.1949 42.9183 85.1913 43.2699ZM95.2681 48.1332C94.6467 48.1332 94.0838 47.9734 93.5795 47.6538C93.0788 47.3306 92.6811 46.8565 92.3864 46.2315C92.0952 45.603 91.9496 44.8324 91.9496 43.9197C91.9496 42.9822 92.1005 42.2028 92.4023 41.5813C92.7042 40.9563 93.1055 40.4893 93.6062 40.1804C94.1104 39.8679 94.6626 39.7116 95.2628 39.7116C95.7209 39.7116 96.1026 39.7898 96.408 39.946C96.717 40.0987 96.9656 40.2905 97.1538 40.5213C97.3455 40.7486 97.4911 40.9723 97.5906 41.1925H97.6598V37.0909H99.9237V48H97.6864V46.6896H97.5906C97.484 46.9169 97.3331 47.1424 97.1378 47.3661C96.946 47.5863 96.6957 47.7692 96.3867 47.9148C96.0813 48.0604 95.7085 48.1332 95.2681 48.1332ZM95.9872 46.3274C96.353 46.3274 96.6619 46.228 96.9141 46.0291C97.1697 45.8267 97.3651 45.5444 97.5 45.1822C97.6385 44.82 97.7077 44.3956 97.7077 43.9091C97.7077 43.4226 97.6403 43 97.5053 42.6413C97.3704 42.2827 97.1751 42.0057 96.9194 41.8104C96.6637 41.6151 96.353 41.5174 95.9872 41.5174C95.6143 41.5174 95.3001 41.6186 95.0444 41.821C94.7887 42.0234 94.5952 42.304 94.4638 42.6626C94.3324 43.0213 94.2667 43.4368 94.2667 43.9091C94.2667 44.3849 94.3324 44.8058 94.4638 45.1715C94.5987 45.5337 94.7923 45.8178 95.0444 46.0238C95.3001 46.2262 95.6143 46.3274 95.9872 46.3274ZM105.261 48V39.8182H107.53V48H105.261ZM106.401 38.7635C106.064 38.7635 105.774 38.6516 105.533 38.4279C105.295 38.2006 105.176 37.929 105.176 37.6129C105.176 37.3004 105.295 37.0323 105.533 36.8086C105.774 36.5813 106.064 36.4677 106.401 36.4677C106.738 36.4677 107.026 36.5813 107.264 36.8086C107.505 37.0323 107.626 37.3004 107.626 37.6129C107.626 37.929 107.505 38.2006 107.264 38.4279C107.026 38.6516 106.738 38.7635 106.401 38.7635ZM111.617 43.2699V48H109.348V39.8182H111.511V41.2617H111.606C111.788 40.7859 112.091 40.4094 112.517 40.1325C112.943 39.8519 113.46 39.7116 114.067 39.7116C114.636 39.7116 115.131 39.8359 115.554 40.0845C115.976 40.3331 116.305 40.6882 116.539 41.1499C116.773 41.608 116.891 42.1548 116.891 42.7905V48H114.621V43.1953C114.625 42.6946 114.497 42.304 114.238 42.0234C113.979 41.7393 113.622 41.5973 113.167 41.5973C112.862 41.5973 112.592 41.663 112.358 41.7944C112.127 41.9258 111.946 42.1175 111.814 42.3697C111.686 42.6183 111.621 42.9183 111.617 43.2699ZM121.694 48.1332C121.072 48.1332 120.51 47.9734 120.005 47.6538C119.505 47.3306 119.107 46.8565 118.812 46.2315C118.521 45.603 118.375 44.8324 118.375 43.9197C118.375 42.9822 118.526 42.2028 118.828 41.5813C119.13 40.9563 119.531 40.4893 120.032 40.1804C120.536 39.8679 121.088 39.7116 121.689 39.7116C122.147 39.7116 122.528 39.7898 122.834 39.946C123.143 40.0987 123.391 40.2905 123.58 40.5213C123.771 40.7486 123.917 40.9723 124.016 41.1925H124.086V37.0909H126.349V48H124.112V46.6896H124.016C123.91 46.9169 123.759 47.1424 123.564 47.3661C123.372 47.5863 123.121 47.7692 122.812 47.9148C122.507 48.0604 122.134 48.1332 121.694 48.1332ZM122.413 46.3274C122.779 46.3274 123.088 46.228 123.34 46.0291C123.596 45.8267 123.791 45.5444 123.926 45.1822C124.064 44.82 124.134 44.3956 124.134 43.9091C124.134 43.4226 124.066 43 123.931 42.6413C123.796 42.2827 123.601 42.0057 123.345 41.8104C123.089 41.6151 122.779 41.5174 122.413 41.5174C122.04 41.5174 121.726 41.6186 121.47 41.821C121.214 42.0234 121.021 42.304 120.89 42.6626C120.758 43.0213 120.692 43.4368 120.692 43.9091C120.692 44.3849 120.758 44.8058 120.89 45.1715C121.025 45.5337 121.218 45.8178 121.47 46.0238C121.726 46.2262 122.04 46.3274 122.413 46.3274ZM128.215 48V39.8182H130.484V48H128.215ZM129.355 38.7635C129.018 38.7635 128.728 38.6516 128.487 38.4279C128.249 38.2006 128.13 37.929 128.13 37.6129C128.13 37.3004 128.249 37.0323 128.487 36.8086C128.728 36.5813 129.018 36.4677 129.355 36.4677C129.692 36.4677 129.98 36.5813 130.218 36.8086C130.459 37.0323 130.58 37.3004 130.58 37.6129C130.58 37.929 130.459 38.2006 130.218 38.4279C129.98 38.6516 129.692 38.7635 129.355 38.7635ZM139.93 39.8182L137.069 48H134.513L131.652 39.8182H134.049L135.748 45.6722H135.834L137.528 39.8182H139.93ZM141.091 48V39.8182H143.36V48H141.091ZM142.231 38.7635C141.894 38.7635 141.604 38.6516 141.363 38.4279C141.125 38.2006 141.006 37.929 141.006 37.6129C141.006 37.3004 141.125 37.0323 141.363 36.8086C141.604 36.5813 141.894 36.4677 142.231 36.4677C142.568 36.4677 142.856 36.5813 143.094 36.8086C143.335 37.0323 143.456 37.3004 143.456 37.6129C143.456 37.929 143.335 38.2006 143.094 38.4279C142.856 38.6516 142.568 38.7635 142.231 38.7635ZM148.193 48.1332C147.571 48.1332 147.009 47.9734 146.504 47.6538C146.004 47.3306 145.606 46.8565 145.311 46.2315C145.02 45.603 144.874 44.8324 144.874 43.9197C144.874 42.9822 145.025 42.2028 145.327 41.5813C145.629 40.9563 146.03 40.4893 146.531 40.1804C147.035 39.8679 147.587 39.7116 148.188 39.7116C148.646 39.7116 149.027 39.7898 149.333 39.946C149.642 40.0987 149.89 40.2905 150.079 40.5213C150.27 40.7486 150.416 40.9723 150.515 41.1925H150.585V37.0909H152.848V48H150.611V46.6896H150.515C150.409 46.9169 150.258 47.1424 150.063 47.3661C149.871 47.5863 149.62 47.7692 149.312 47.9148C149.006 48.0604 148.633 48.1332 148.193 48.1332ZM148.912 46.3274C149.278 46.3274 149.587 46.228 149.839 46.0291C150.095 45.8267 150.29 45.5444 150.425 45.1822C150.563 44.82 150.633 44.3956 150.633 43.9091C150.633 43.4226 150.565 43 150.43 42.6413C150.295 42.2827 150.1 42.0057 149.844 41.8104C149.589 41.6151 149.278 41.5174 148.912 41.5174C148.539 41.5174 148.225 41.6186 147.969 41.821C147.714 42.0234 147.52 42.304 147.389 42.6626C147.257 43.0213 147.191 43.4368 147.191 43.9091C147.191 44.3849 147.257 44.8058 147.389 45.1715C147.524 45.5337 147.717 45.8178 147.969 46.0238C148.225 46.2262 148.539 46.3274 148.912 46.3274ZM159.961 44.5163V39.8182H162.23V48H160.051V46.5138H159.966C159.782 46.9933 159.474 47.3786 159.045 47.6697C158.619 47.9609 158.098 48.1065 157.484 48.1065C156.937 48.1065 156.456 47.9822 156.04 47.7337C155.625 47.4851 155.3 47.1317 155.066 46.6737C154.835 46.2156 154.718 45.6669 154.714 45.0277V39.8182H156.983V44.6229C156.987 45.1058 157.116 45.4876 157.372 45.7681C157.628 46.0487 157.971 46.1889 158.4 46.1889C158.674 46.1889 158.929 46.1268 159.167 46.0025C159.405 45.8746 159.597 45.6864 159.743 45.4379C159.892 45.1893 159.964 44.8821 159.961 44.5163ZM166.378 48.1545C165.856 48.1545 165.391 48.0639 164.983 47.8828C164.574 47.6982 164.251 47.4265 164.013 47.0678C163.779 46.7056 163.662 46.2546 163.662 45.7148C163.662 45.2603 163.745 44.8786 163.912 44.5696C164.079 44.2607 164.306 44.0121 164.594 43.8239C164.881 43.6357 165.208 43.4936 165.574 43.3977C165.943 43.3018 166.33 43.2344 166.735 43.1953C167.211 43.1456 167.595 43.0994 167.886 43.0568C168.177 43.0107 168.388 42.9432 168.52 42.8544C168.651 42.7656 168.717 42.6342 168.717 42.4602V42.4283C168.717 42.0909 168.61 41.8299 168.397 41.6452C168.188 41.4606 167.889 41.3683 167.502 41.3683C167.094 41.3683 166.769 41.4588 166.527 41.6399C166.286 41.8175 166.126 42.0412 166.048 42.3111L163.949 42.1406C164.056 41.6435 164.265 41.2138 164.578 40.8516C164.89 40.4858 165.293 40.2053 165.787 40.0099C166.284 39.8111 166.859 39.7116 167.513 39.7116C167.967 39.7116 168.402 39.7649 168.818 39.8714C169.237 39.978 169.608 40.1431 169.931 40.3668C170.258 40.5906 170.515 40.8782 170.704 41.2298C170.892 41.5778 170.986 41.995 170.986 42.4815V48H168.834V46.8654H168.77C168.639 47.1211 168.463 47.3466 168.243 47.5419C168.022 47.7337 167.758 47.8846 167.449 47.9947C167.14 48.1012 166.783 48.1545 166.378 48.1545ZM167.028 46.5884C167.362 46.5884 167.657 46.5227 167.912 46.3913C168.168 46.2564 168.369 46.0753 168.514 45.848C168.66 45.6207 168.733 45.3633 168.733 45.0756V44.2074C168.662 44.2536 168.564 44.2962 168.44 44.3352C168.319 44.3707 168.182 44.4045 168.03 44.4364C167.877 44.4648 167.724 44.4915 167.571 44.5163C167.419 44.5376 167.28 44.5572 167.156 44.5749C166.89 44.614 166.657 44.6761 166.458 44.7614C166.259 44.8466 166.105 44.962 165.995 45.1076C165.885 45.2496 165.83 45.4272 165.83 45.6403C165.83 45.9492 165.941 46.1854 166.165 46.3487C166.392 46.5085 166.68 46.5884 167.028 46.5884ZM175.016 37.0909V48H172.746V37.0909H175.016ZM183.641 42.1513L181.563 42.2791C181.528 42.1016 181.452 41.9418 181.334 41.7997C181.217 41.6541 181.063 41.5387 180.871 41.4535C180.683 41.3647 180.457 41.3203 180.194 41.3203C179.843 41.3203 179.546 41.3949 179.305 41.544C179.063 41.6896 178.943 41.8849 178.943 42.13C178.943 42.3253 179.021 42.4904 179.177 42.6254C179.333 42.7603 179.601 42.8686 179.981 42.9503L181.462 43.2486C182.258 43.4119 182.851 43.6747 183.241 44.0369C183.632 44.3991 183.827 44.875 183.827 45.4645C183.827 46.0007 183.669 46.4712 183.353 46.8761C183.041 47.2809 182.611 47.5969 182.064 47.8242C181.521 48.0479 180.894 48.1598 180.184 48.1598C179.101 48.1598 178.238 47.9343 177.595 47.4833C176.956 47.0288 176.581 46.4109 176.471 45.6296L178.703 45.5124C178.77 45.8427 178.934 46.0948 179.193 46.2688C179.452 46.4393 179.784 46.5245 180.189 46.5245C180.587 46.5245 180.906 46.4482 181.148 46.2955C181.393 46.1392 181.517 45.9386 181.521 45.6935C181.517 45.4876 181.43 45.3189 181.26 45.1875C181.089 45.0526 180.827 44.9496 180.471 44.8786L179.055 44.5962C178.256 44.4364 177.661 44.1594 177.27 43.7653C176.883 43.3711 176.689 42.8686 176.689 42.2578C176.689 41.7322 176.831 41.2795 177.116 40.8995C177.403 40.5195 177.806 40.2266 178.325 40.0206C178.847 39.8146 179.458 39.7116 180.157 39.7116C181.191 39.7116 182.004 39.93 182.597 40.3668C183.193 40.8036 183.541 41.3984 183.641 42.1513ZM190.342 48L188.115 39.8182H190.411L191.679 45.3153H191.753L193.074 39.8182H195.328L196.67 45.2834H196.739L197.986 39.8182H200.276L198.055 48H195.653L194.246 42.8544H194.145L192.739 48H190.342ZM203.756 43.2699V48H201.487V37.0909H203.692V41.2617H203.788C203.972 40.7788 204.271 40.4006 204.683 40.1271C205.095 39.8501 205.611 39.7116 206.233 39.7116C206.801 39.7116 207.296 39.8359 207.719 40.0845C208.145 40.3295 208.475 40.6829 208.71 41.1445C208.948 41.6026 209.065 42.1513 209.061 42.7905V48H206.792V43.1953C206.796 42.6911 206.668 42.2987 206.408 42.0181C206.153 41.7376 205.794 41.5973 205.332 41.5973C205.024 41.5973 204.75 41.663 204.512 41.7944C204.278 41.9258 204.093 42.1175 203.958 42.3697C203.827 42.6183 203.759 42.9183 203.756 43.2699ZM214.544 48.1598C213.716 48.1598 213.001 47.984 212.397 47.6325C211.797 47.2773 211.333 46.7837 211.007 46.1516C210.68 45.516 210.517 44.7791 210.517 43.9411C210.517 43.0959 210.68 42.3572 211.007 41.7251C211.333 41.0895 211.797 40.5959 212.397 40.2443C213.001 39.8892 213.716 39.7116 214.544 39.7116C215.371 39.7116 216.085 39.8892 216.685 40.2443C217.289 40.5959 217.754 41.0895 218.081 41.7251C218.407 42.3572 218.571 43.0959 218.571 43.9411C218.571 44.7791 218.407 45.516 218.081 46.1516C217.754 46.7837 217.289 47.2773 216.685 47.6325C216.085 47.984 215.371 48.1598 214.544 48.1598ZM214.554 46.402C214.931 46.402 215.245 46.2955 215.497 46.0824C215.749 45.8658 215.939 45.571 216.067 45.1982C216.199 44.8253 216.264 44.4009 216.264 43.9251C216.264 43.4492 216.199 43.0249 216.067 42.652C215.939 42.2791 215.749 41.9844 215.497 41.7678C215.245 41.5511 214.931 41.4428 214.554 41.4428C214.174 41.4428 213.855 41.5511 213.596 41.7678C213.34 41.9844 213.146 42.2791 213.015 42.652C212.887 43.0249 212.823 43.4492 212.823 43.9251C212.823 44.4009 212.887 44.8253 213.015 45.1982C213.146 45.571 213.34 45.8658 213.596 46.0824C213.855 46.2955 214.174 46.402 214.554 46.402ZM225.132 48L222.905 39.8182H225.201L226.469 45.3153H226.543L227.864 39.8182H230.118L231.46 45.2834H231.529L232.776 39.8182H235.066L232.845 48H230.443L229.036 42.8544H228.935L227.529 48H225.132ZM238.61 48.1545C238.088 48.1545 237.623 48.0639 237.214 47.8828C236.806 47.6982 236.483 47.4265 236.245 47.0678C236.01 46.7056 235.893 46.2546 235.893 45.7148C235.893 45.2603 235.977 44.8786 236.143 44.5696C236.31 44.2607 236.538 44.0121 236.825 43.8239C237.113 43.6357 237.44 43.4936 237.805 43.3977C238.175 43.3018 238.562 43.2344 238.967 43.1953C239.442 43.1456 239.826 43.0994 240.117 43.0568C240.408 43.0107 240.62 42.9432 240.751 42.8544C240.882 42.7656 240.948 42.6342 240.948 42.4602V42.4283C240.948 42.0909 240.842 41.8299 240.629 41.6452C240.419 41.4606 240.121 41.3683 239.734 41.3683C239.325 41.3683 239 41.4588 238.759 41.6399C238.517 41.8175 238.358 42.0412 238.279 42.3111L236.181 42.1406C236.287 41.6435 236.497 41.2138 236.809 40.8516C237.122 40.4858 237.525 40.2053 238.018 40.0099C238.516 39.8111 239.091 39.7116 239.744 39.7116C240.199 39.7116 240.634 39.7649 241.049 39.8714C241.468 39.978 241.839 40.1431 242.163 40.3668C242.489 40.5906 242.747 40.8782 242.935 41.2298C243.123 41.5778 243.217 41.995 243.217 42.4815V48H241.065V46.8654H241.001C240.87 47.1211 240.694 47.3466 240.474 47.5419C240.254 47.7337 239.989 47.8846 239.68 47.9947C239.371 48.1012 239.015 48.1545 238.61 48.1545ZM239.26 46.5884C239.593 46.5884 239.888 46.5227 240.144 46.3913C240.4 46.2564 240.6 46.0753 240.746 45.848C240.891 45.6207 240.964 45.3633 240.964 45.0756V44.2074C240.893 44.2536 240.795 44.2962 240.671 44.3352C240.55 44.3707 240.414 44.4045 240.261 44.4364C240.108 44.4648 239.956 44.4915 239.803 44.5163C239.65 44.5376 239.512 44.5572 239.387 44.5749C239.121 44.614 238.888 44.6761 238.69 44.7614C238.491 44.8466 238.336 44.962 238.226 45.1076C238.116 45.2496 238.061 45.4272 238.061 45.6403C238.061 45.9492 238.173 46.1854 238.397 46.3487C238.624 46.5085 238.912 46.5884 239.26 46.5884ZM247.247 43.2699V48H244.978V39.8182H247.14V41.2617H247.236C247.417 40.7859 247.721 40.4094 248.147 40.1325C248.573 39.8519 249.09 39.7116 249.697 39.7116C250.265 39.7116 250.761 39.8359 251.183 40.0845C251.606 40.3331 251.934 40.6882 252.169 41.1499C252.403 41.608 252.52 42.1548 252.52 42.7905V48H250.251V43.1953C250.255 42.6946 250.127 42.304 249.868 42.0234C249.608 41.7393 249.252 41.5973 248.797 41.5973C248.492 41.5973 248.222 41.663 247.987 41.7944C247.757 41.9258 247.575 42.1175 247.444 42.3697C247.316 42.6183 247.251 42.9183 247.247 43.2699ZM258.661 39.8182V41.5227H253.734V39.8182H258.661ZM254.852 37.858H257.121V45.4858C257.121 45.6953 257.153 45.8587 257.217 45.9759C257.281 46.0895 257.37 46.1694 257.484 46.2156C257.601 46.2617 257.736 46.2848 257.888 46.2848C257.995 46.2848 258.101 46.2759 258.208 46.2582C258.315 46.2369 258.396 46.2209 258.453 46.2102L258.81 47.8988C258.696 47.9343 258.536 47.9751 258.331 48.0213C258.125 48.071 257.874 48.1012 257.579 48.1119C257.033 48.1332 256.553 48.0604 256.141 47.8935C255.733 47.7266 255.415 47.4673 255.188 47.1158C254.96 46.7642 254.849 46.3203 254.852 45.7841V37.858ZM267.963 39.8182V41.5227H263.035V39.8182H267.963ZM264.154 37.858H266.423V45.4858C266.423 45.6953 266.455 45.8587 266.519 45.9759C266.583 46.0895 266.672 46.1694 266.785 46.2156C266.903 46.2617 267.037 46.2848 267.19 46.2848C267.297 46.2848 267.403 46.2759 267.51 46.2582C267.616 46.2369 267.698 46.2209 267.755 46.2102L268.112 47.8988C267.998 47.9343 267.838 47.9751 267.632 48.0213C267.426 48.071 267.176 48.1012 266.881 48.1119C266.334 48.1332 265.855 48.0604 265.443 47.8935C265.035 47.7266 264.717 47.4673 264.49 47.1158C264.262 46.7642 264.15 46.3203 264.154 45.7841V37.858ZM273.05 48.1598C272.222 48.1598 271.507 47.984 270.903 47.6325C270.303 47.2773 269.839 46.7837 269.513 46.1516C269.186 45.516 269.023 44.7791 269.023 43.9411C269.023 43.0959 269.186 42.3572 269.513 41.7251C269.839 41.0895 270.303 40.5959 270.903 40.2443C271.507 39.8892 272.222 39.7116 273.05 39.7116C273.877 39.7116 274.591 39.8892 275.191 40.2443C275.795 40.5959 276.26 41.0895 276.586 41.7251C276.913 42.3572 277.077 43.0959 277.077 43.9411C277.077 44.7791 276.913 45.516 276.586 46.1516C276.26 46.7837 275.795 47.2773 275.191 47.6325C274.591 47.984 273.877 48.1598 273.05 48.1598ZM273.06 46.402C273.437 46.402 273.751 46.2955 274.003 46.0824C274.255 45.8658 274.445 45.571 274.573 45.1982C274.704 44.8253 274.77 44.4009 274.77 43.9251C274.77 43.4492 274.704 43.0249 274.573 42.652C274.445 42.2791 274.255 41.9844 274.003 41.7678C273.751 41.5511 273.437 41.4428 273.06 41.4428C272.68 41.4428 272.361 41.5511 272.101 41.7678C271.846 41.9844 271.652 42.2791 271.521 42.652C271.393 43.0249 271.329 43.4492 271.329 43.9251C271.329 44.4009 271.393 44.8253 271.521 45.1982C271.652 45.571 271.846 45.8658 272.101 46.0824C272.361 46.2955 272.68 46.402 273.06 46.402ZM0.90554 66V57.8182H3.06818V59.2617H3.16406C3.33452 58.7823 3.61861 58.4041 4.01634 58.1271C4.41406 57.8501 4.88991 57.7116 5.44389 57.7116C6.00497 57.7116 6.4826 57.8519 6.87678 58.1325C7.27095 58.4094 7.53374 58.7859 7.66513 59.2617H7.75036C7.91726 58.793 8.21911 58.4183 8.6559 58.1378C9.09624 57.8537 9.61648 57.7116 10.2166 57.7116C10.9801 57.7116 11.5998 57.9549 12.0756 58.4414C12.555 58.9244 12.7947 59.6097 12.7947 60.4975V66H10.5309V60.945C10.5309 60.4904 10.4102 60.1495 10.1687 59.9222C9.9272 59.695 9.62536 59.5813 9.26314 59.5813C8.85121 59.5813 8.52983 59.7127 8.29901 59.9755C8.06818 60.2347 7.95277 60.5774 7.95277 61.0036V66H5.75284V60.897C5.75284 60.4957 5.63743 60.1761 5.40661 59.9382C5.17933 59.7003 4.87926 59.5813 4.50639 59.5813C4.25426 59.5813 4.02699 59.6452 3.82457 59.7731C3.62571 59.8974 3.46768 60.0732 3.3505 60.3004C3.23331 60.5241 3.17472 60.7869 3.17472 61.0888V66H0.90554ZM16.9203 66.1545C16.3983 66.1545 15.9331 66.0639 15.5247 65.8828C15.1163 65.6982 14.7931 65.4265 14.5552 65.0678C14.3208 64.7056 14.2037 64.2546 14.2037 63.7148C14.2037 63.2603 14.2871 62.8786 14.454 62.5696C14.6209 62.2607 14.8482 62.0121 15.1358 61.8239C15.4235 61.6357 15.7502 61.4936 16.1159 61.3977C16.4853 61.3018 16.8723 61.2344 17.2772 61.1953C17.753 61.1456 18.1365 61.0994 18.4277 61.0568C18.7189 61.0107 18.9302 60.9432 19.0616 60.8544C19.193 60.7656 19.2587 60.6342 19.2587 60.4602V60.4283C19.2587 60.0909 19.1522 59.8299 18.9391 59.6452C18.7296 59.4606 18.4313 59.3683 18.0442 59.3683C17.6358 59.3683 17.3109 59.4588 17.0694 59.6399C16.8279 59.8175 16.6681 60.0412 16.59 60.3111L14.4913 60.1406C14.5978 59.6435 14.8074 59.2138 15.1199 58.8516C15.4324 58.4858 15.8354 58.2053 16.329 58.0099C16.8262 57.8111 17.4015 57.7116 18.0549 57.7116C18.5094 57.7116 18.9444 57.7649 19.3599 57.8714C19.7789 57.978 20.15 58.1431 20.4732 58.3668C20.7999 58.5906 21.0574 58.8782 21.2456 59.2298C21.4338 59.5778 21.5279 59.995 21.5279 60.4815V66H19.3759V64.8654H19.312C19.1806 65.1211 19.0048 65.3466 18.7846 65.5419C18.5645 65.7337 18.2999 65.8846 17.9909 65.9947C17.682 66.1012 17.3251 66.1545 16.9203 66.1545ZM17.5701 64.5884C17.9039 64.5884 18.1987 64.5227 18.4544 64.3913C18.71 64.2564 18.9107 64.0753 19.0563 63.848C19.2019 63.6207 19.2747 63.3633 19.2747 63.0756V62.2074C19.2037 62.2536 19.106 62.2962 18.9817 62.3352C18.861 62.3707 18.7243 62.4045 18.5716 62.4364C18.4189 62.4648 18.2662 62.4915 18.1135 62.5163C17.9608 62.5376 17.8223 62.5572 17.698 62.5749C17.4316 62.614 17.199 62.6761 17.0002 62.7614C16.8013 62.8466 16.6468 62.962 16.5368 63.1076C16.4267 63.2496 16.3716 63.4272 16.3716 63.6403C16.3716 63.9492 16.4835 64.1854 16.7072 64.3487C16.9345 64.5085 17.2221 64.5884 17.5701 64.5884ZM25.3445 63.6456L25.3498 60.9237H25.68L28.3008 57.8182H30.9055L27.3846 61.9304H26.8466L25.3445 63.6456ZM23.2884 66V55.0909H25.5575V66H23.2884ZM28.402 66L25.9943 62.4364L27.5071 60.8331L31.06 66H28.402ZM35.4106 66.1598C34.569 66.1598 33.8445 65.9893 33.2373 65.6484C32.6336 65.304 32.1684 64.8175 31.8417 64.1889C31.515 63.5568 31.3517 62.8093 31.3517 61.9464C31.3517 61.1048 31.515 60.3661 31.8417 59.7305C32.1684 59.0948 32.6283 58.5994 33.2213 58.2443C33.8179 57.8892 34.5175 57.7116 35.32 57.7116C35.8598 57.7116 36.3623 57.7987 36.8275 57.9727C37.2963 58.1431 37.7046 58.4006 38.0526 58.745C38.4042 59.0895 38.6776 59.5227 38.873 60.0447C39.0683 60.5632 39.1659 61.1705 39.1659 61.8665V62.4897H32.2572V61.0835H37.0299C37.0299 60.7567 36.9589 60.4673 36.8169 60.2152C36.6748 59.9631 36.4777 59.766 36.2256 59.6239C35.977 59.4783 35.6876 59.4055 35.3573 59.4055C35.0129 59.4055 34.7075 59.4854 34.4411 59.6452C34.1784 59.8015 33.9724 60.0128 33.8232 60.2791C33.6741 60.5419 33.5977 60.8349 33.5942 61.158V62.495C33.5942 62.8999 33.6688 63.2496 33.8179 63.5444C33.9706 63.8391 34.1855 64.0664 34.4624 64.2262C34.7394 64.386 35.0679 64.4659 35.4479 64.4659C35.7 64.4659 35.9308 64.4304 36.1404 64.3594C36.3499 64.2884 36.5292 64.1818 36.6784 64.0398C36.8275 63.8977 36.9411 63.7237 37.0193 63.5178L39.118 63.6562C39.0115 64.1605 38.7931 64.6009 38.4628 64.9773C38.1361 65.3501 37.7135 65.6413 37.195 65.8509C36.6801 66.0568 36.0853 66.1598 35.4106 66.1598ZM44.1184 66V57.8182H46.3876V66H44.1184ZM45.2583 56.7635C44.921 56.7635 44.6316 56.6516 44.3901 56.4279C44.1522 56.2006 44.0332 55.929 44.0332 55.6129C44.0332 55.3004 44.1522 55.0323 44.3901 54.8086C44.6316 54.5813 44.921 54.4677 45.2583 54.4677C45.5957 54.4677 45.8833 54.5813 46.1213 54.8086C46.3627 55.0323 46.4835 55.3004 46.4835 55.6129C46.4835 55.929 46.3627 56.2006 46.1213 56.4279C45.8833 56.6516 45.5957 56.7635 45.2583 56.7635ZM52.5573 57.8182V59.5227H47.6301V57.8182H52.5573ZM48.7487 55.858H51.0178V63.4858C51.0178 63.6953 51.0498 63.8587 51.1137 63.9759C51.1776 64.0895 51.2664 64.1694 51.3801 64.2156C51.4972 64.2617 51.6322 64.2848 51.7849 64.2848C51.8914 64.2848 51.998 64.2759 52.1045 64.2582C52.211 64.2369 52.2927 64.2209 52.3495 64.2102L52.7064 65.8988C52.5928 65.9343 52.433 65.9751 52.227 66.0213C52.021 66.071 51.7707 66.1012 51.4759 66.1119C50.9291 66.1332 50.4497 66.0604 50.0377 65.8935C49.6294 65.7266 49.3115 65.4673 49.0843 65.1158C48.857 64.7642 48.7451 64.3203 48.7487 63.7841V55.858ZM57.5071 66V57.8182H59.7763V66H57.5071ZM58.647 56.7635C58.3097 56.7635 58.0202 56.6516 57.7788 56.4279C57.5408 56.2006 57.4219 55.929 57.4219 55.6129C57.4219 55.3004 57.5408 55.0323 57.7788 54.8086C58.0202 54.5813 58.3097 54.4677 58.647 54.4677C58.9844 54.4677 59.272 54.5813 59.5099 54.8086C59.7514 55.0323 59.8722 55.3004 59.8722 55.6129C59.8722 55.929 59.7514 56.2006 59.5099 56.4279C59.272 56.6516 58.9844 56.7635 58.647 56.7635ZM63.8632 61.2699V66H61.594V57.8182H63.7567V59.2617H63.8525C64.0336 58.7859 64.3373 58.4094 64.7634 58.1325C65.1895 57.8519 65.7062 57.7116 66.3135 57.7116C66.8817 57.7116 67.377 57.8359 67.7996 58.0845C68.2222 58.3331 68.5507 58.6882 68.7851 59.1499C69.0194 59.608 69.1366 60.1548 69.1366 60.7905V66H66.8675V61.1953C66.871 60.6946 66.7432 60.304 66.4839 60.0234C66.2247 59.7393 65.8678 59.5973 65.4133 59.5973C65.1079 59.5973 64.838 59.663 64.6036 59.7944C64.3728 59.9258 64.1917 60.1175 64.0603 60.3697C63.9324 60.6183 63.8667 60.9183 63.8632 61.2699ZM76.6659 55.0909V66H74.3968V55.0909H76.6659ZM78.4837 66V57.8182H80.7528V66H78.4837ZM79.6236 56.7635C79.2862 56.7635 78.9968 56.6516 78.7553 56.4279C78.5174 56.2006 78.3984 55.929 78.3984 55.6129C78.3984 55.3004 78.5174 55.0323 78.7553 54.8086C78.9968 54.5813 79.2862 54.4677 79.6236 54.4677C79.9609 54.4677 80.2486 54.5813 80.4865 54.8086C80.728 55.0323 80.8487 55.3004 80.8487 55.6129C80.8487 55.929 80.728 56.2006 80.4865 56.4279C80.2486 56.6516 79.9609 56.7635 79.6236 56.7635ZM86.9704 57.8182V59.5227H81.9207V57.8182H86.9704ZM83.0766 66V57.2269C83.0766 56.6339 83.192 56.142 83.4229 55.7514C83.6572 55.3608 83.9768 55.0678 84.3817 54.8725C84.7865 54.6772 85.2464 54.5795 85.7613 54.5795C86.1093 54.5795 86.4271 54.6062 86.7148 54.6594C87.0059 54.7127 87.2226 54.7607 87.3646 54.8033L86.9598 56.5078C86.871 56.4794 86.7609 56.4528 86.6295 56.4279C86.5017 56.4031 86.3703 56.3906 86.2354 56.3906C85.9015 56.3906 85.6689 56.4688 85.5376 56.625C85.4062 56.7777 85.3405 56.9925 85.3405 57.2695V66H83.0766ZM91.7924 66.1598C90.9508 66.1598 90.2264 65.9893 89.6191 65.6484C89.0154 65.304 88.5502 64.8175 88.2235 64.1889C87.8968 63.5568 87.7335 62.8093 87.7335 61.9464C87.7335 61.1048 87.8968 60.3661 88.2235 59.7305C88.5502 59.0948 89.0101 58.5994 89.6032 58.2443C90.1998 57.8892 90.8993 57.7116 91.7019 57.7116C92.2417 57.7116 92.7441 57.7987 93.2093 57.9727C93.6781 58.1431 94.0865 58.4006 94.4345 58.745C94.786 59.0895 95.0595 59.5227 95.2548 60.0447C95.4501 60.5632 95.5478 61.1705 95.5478 61.8665V62.4897H88.639V61.0835H93.4118C93.4118 60.7567 93.3407 60.4673 93.1987 60.2152C93.0566 59.9631 92.8596 59.766 92.6074 59.6239C92.3588 59.4783 92.0694 59.4055 91.7392 59.4055C91.3947 59.4055 91.0893 59.4854 90.823 59.6452C90.5602 59.8015 90.3542 60.0128 90.2051 60.2791C90.0559 60.5419 89.9796 60.8349 89.976 61.158V62.495C89.976 62.8999 90.0506 63.2496 90.1998 63.5444C90.3525 63.8391 90.5673 64.0664 90.8443 64.2262C91.1213 64.386 91.4498 64.4659 91.8297 64.4659C92.0819 64.4659 92.3127 64.4304 92.5222 64.3594C92.7317 64.2884 92.911 64.1818 93.0602 64.0398C93.2093 63.8977 93.323 63.7237 93.4011 63.5178L95.4998 63.6562C95.3933 64.1605 95.1749 64.6009 94.8446 64.9773C94.5179 65.3501 94.0953 65.6413 93.5769 65.8509C93.062 66.0568 92.4672 66.1598 91.7924 66.1598ZM98.3549 66.1385C98.0034 66.1385 97.7015 66.0142 97.4494 65.7656C97.2008 65.5135 97.0765 65.2116 97.0765 64.8601C97.0765 64.5121 97.2008 64.2138 97.4494 63.9652C97.7015 63.7166 98.0034 63.5923 98.3549 63.5923C98.6958 63.5923 98.9941 63.7166 99.2498 63.9652C99.5055 64.2138 99.6333 64.5121 99.6333 64.8601C99.6333 65.0945 99.573 65.3093 99.4522 65.5046C99.335 65.6964 99.1806 65.8509 98.9888 65.968C98.7971 66.0817 98.5858 66.1385 98.3549 66.1385Z" fill="black"/>
</svg>
